<?xml version="1.0" encoding="UTF-8"?>
<svg id="Layer_2" data-name="Layer 2" xmlns="http://www.w3.org/2000/svg" viewBox="0 0 308.16 311.19">
  <defs>
    <style>
      .cls-1 {
        fill: #13294b;
      }

      .cls-2 {
        fill: #d3e9e7;
        stroke: #1d4f91;
        stroke-miterlimit: 10;
        stroke-width: 5px;
      }
    </style>
  </defs>
  <g id="Layer_4" data-name="Layer 4">
    <rect class="cls-2" x="2.5" y="2.5" width="303.16" height="306.19" rx="27.28" ry="27.28"/>
    <g>
      <path class="cls-1" d="M79.43,28.33l-8.18.51c-.11-4.7-1.95-7.06-5.5-7.06-4.08,0-6.12,3.62-6.12,10.86,0,4.18.55,7.02,1.66,8.51,1.11,1.49,2.66,2.23,4.65,2.23,3.23,0,5.2-2.1,5.92-6.3l7.57.46c-.49,3.99-1.97,7.02-4.46,9.09-2.48,2.07-5.52,3.11-9.12,3.11-4.41,0-8-1.52-10.75-4.57-2.76-3.04-4.14-7.25-4.14-12.62,0-5.03,1.33-9.15,4-12.35,2.67-3.21,6.31-4.81,10.94-4.81,8.01,0,12.52,4.31,13.53,12.92Z"/>
      <path class="cls-1" d="M90.64,15.93v12.02c1.33-2.58,3.56-3.87,6.67-3.87,1.66,0,3.08.36,4.26,1.09,1.18.72,2.01,1.66,2.49,2.79.48,1.14.72,2.81.72,5v16.28h-7.28v-13.91c0-1.66-.06-2.8-.19-3.42s-.43-1.14-.89-1.55c-.46-.42-1.04-.62-1.74-.62-.91,0-1.81.35-2.7,1.06s-1.34,2.22-1.34,4.53v13.91h-7.06V15.93h7.06Z"/>
      <path class="cls-1" d="M132.92,38.14h-15.87c-.02.44-.02.82-.02,1.15,0,1.76.47,3.08,1.4,3.98.94.9,2.05,1.34,3.36,1.34,2.42,0,3.88-1.29,4.37-3.88l6.59.49c-1.84,5.7-5.58,8.54-11.21,8.54-2.46,0-4.54-.49-6.26-1.48-1.72-.98-3.13-2.42-4.25-4.31-1.12-1.89-1.67-4.15-1.67-6.79,0-3.92,1.12-7.09,3.36-9.5,2.24-2.41,5.12-3.61,8.63-3.61,3.17,0,5.9,1.12,8.17,3.36,2.27,2.24,3.41,5.81,3.41,10.71ZM117.03,33.92h8.76c-.23-3.38-1.62-5.08-4.17-5.08-2.73,0-4.26,1.69-4.59,5.08Z"/>
      <path class="cls-1" d="M159.19,40c-.28,2.91-1.43,5.27-3.45,7.07-2.03,1.8-4.64,2.7-7.85,2.7-3.48,0-6.32-1.15-8.51-3.45-2.19-2.3-3.28-5.38-3.28-9.24s1.12-6.99,3.36-9.39c2.24-2.4,5.23-3.6,8.97-3.6,3.01,0,5.51.9,7.48,2.71,1.98,1.81,3.07,4.07,3.28,6.79l-6.79.39c-.23-2.96-1.51-4.44-3.86-4.44-2.88,0-4.32,2.36-4.32,7.08,0,3.14.4,5.14,1.21,5.98.8.85,1.79,1.27,2.94,1.27,2.25,0,3.59-1.42,4.03-4.27l6.79.42Z"/>
      <path class="cls-1" d="M179.73,32.96l8.03,16.29h-8.03l-5.15-11.17-4.28,4.92v6.25h-6.86V15.93h6.86v19.97l1.07-1.34c.46-.62.84-1.11,1.15-1.49l7.19-8.47h7.09l-7.07,8.36Z"/>
      <path class="cls-1" d="M190.59,49.25V15.93h7.28v33.33h-7.28Z"/>
      <path class="cls-1" d="M211.12,15.24v7.28h-7.28v-7.28h7.28ZM211.12,24.59v24.66h-7.28v-24.66h7.28Z"/>
      <path class="cls-1" d="M235.56,30.55l-5.3,1.42c-.62-2.23-2.22-3.34-4.81-3.34-2.44,0-3.66.74-3.66,2.23,0,.59.22,1.06.67,1.41s1.62.65,3.5.89c2.82.37,4.9.8,6.25,1.29,1.35.49,2.42,1.31,3.21,2.47.79,1.16,1.18,2.58,1.18,4.27,0,2.54-.96,4.61-2.89,6.2-1.93,1.6-4.63,2.39-8.09,2.39-6.28,0-10.03-2.43-11.25-7.3l6.13-.9c.5,2.21,2.33,3.32,5.47,3.32,1.2,0,2.22-.22,3.05-.65s1.25-1.02,1.25-1.75c0-1.14-.92-1.82-2.76-2.03-4.98-.61-8.26-1.57-9.83-2.86-1.57-1.29-2.36-3.1-2.36-5.41s.91-4.28,2.73-5.81c1.82-1.53,4.38-2.29,7.67-2.29,2.6,0,4.69.51,6.25,1.54s2.76,2.67,3.59,4.93Z"/>
      <path class="cls-1" d="M249.35,30.26v10.42c0,1.3.19,2.17.58,2.61.39.44,1.3.66,2.75.66.67,0,1.43-.03,2.31-.1v5.4c-2.12.36-3.64.54-4.57.54-3.03,0-5.18-.58-6.45-1.75-1.27-1.16-1.9-3.27-1.9-6.31v-11.47h-3.91v-5.66h4.32l.59-7.28,6.27-.49v7.76h5.3v5.66h-5.3Z"/>
    </g>
  </g>
</svg>