<?xml version="1.0" encoding="UTF-8"?>
<svg id="Layer_2" data-name="Layer 2" xmlns="http://www.w3.org/2000/svg" viewBox="0 0 240.71 339.23">
  <defs>
    <style>
      .cls-1 {
        fill: #e9ced8;
        stroke: #1d4f91;
        stroke-miterlimit: 10;
        stroke-width: 5px;
      }

      .cls-2 {
        fill: #13294b;
      }
    </style>
  </defs>
  <g id="Layer_4" data-name="Layer 4">
    <rect class="cls-1" x="2.5" y="2.5" width="235.71" height="334.23" rx="27.28" ry="27.28"/>
    <g>
      <path class="cls-2" d="M85.54,41.56v12.38h-7.93V20.61h13.13c2.93,0,5.17.31,6.73.94,1.55.63,2.94,1.75,4.16,3.36s1.83,3.59,1.83,5.93c0,1.64-.33,3.25-.98,4.81-.65,1.56-1.57,2.79-2.76,3.69-1.19.9-2.34,1.49-3.45,1.78-1.12.29-2.86.44-5.24.44h-5.49ZM85.27,35.51h5.08c1.94,0,3.3-.45,4.08-1.34.78-.89,1.17-1.92,1.17-3.08,0-1.35-.44-2.42-1.31-3.22-.87-.8-2.19-1.2-3.97-1.2h-5.05v8.84Z"/>
      <path class="cls-2" d="M107.44,53.94V20.61h7.28v33.33h-7.28Z"/>
      <path class="cls-2" d="M142.2,53.94h-7.06c-.23-.98-.34-2.26-.34-3.86-1.24,1.76-2.47,2.93-3.69,3.5-1.23.58-2.62.87-4.18.87-2.31,0-4.17-.63-5.59-1.88-1.42-1.25-2.13-2.94-2.13-5.05,0-1.55.41-2.97,1.24-4.27.83-1.3,2.16-2.32,4-3.06,1.84-.74,5.18-1.29,10.04-1.65v-1.42c0-2.39-1.19-3.59-3.58-3.59-2.55,0-3.97,1.2-4.26,3.59l-6.71-.63c.44-2.8,1.77-4.79,3.98-5.96,2.21-1.17,4.72-1.76,7.52-1.76,1.68,0,3.25.2,4.74.59,1.48.39,2.64.98,3.47,1.76s1.39,1.61,1.68,2.48c.29.87.44,2.39.44,4.55v11.18c0,2.15.15,3.69.44,4.61ZM134.49,42.12c-5.08.5-7.62,2.04-7.62,4.61,0,.86.27,1.61.8,2.23.54.63,1.3.94,2.29.94,1.28,0,2.36-.53,3.22-1.6.87-1.07,1.3-2.38,1.3-3.94v-2.25Z"/>
      <path class="cls-2" d="M166.28,29.28l-7.73,23.66c-.86,2.64-1.6,4.54-2.21,5.73-.61,1.18-1.49,2.12-2.64,2.83-1.15.71-2.75,1.06-4.8,1.06-1.03,0-2.19-.1-3.49-.29v-5.59c1.29.23,2.48.34,3.57.34,1.44,0,2.4-.27,2.89-.81s.86-1.3,1.1-2.27l-8.98-24.65h7.69l4.75,14.67,4.57-14.67h5.28Z"/>
      <path class="cls-2" d="M79.01,68.94l-6.64,2.22c-.89-2.64-2.79-3.96-5.67-3.96-3.09,0-4.63,1-4.63,3,0,.8.29,1.47.87,2.03.58.55,1.88,1.03,3.91,1.44,3.4.69,5.88,1.38,7.46,2.08,1.58.7,2.91,1.83,3.99,3.38s1.62,3.29,1.62,5.21c0,3.01-1.16,5.61-3.48,7.81-2.32,2.2-5.75,3.29-10.31,3.29-3.41,0-6.32-.78-8.72-2.33-2.4-1.55-3.98-3.86-4.74-6.92l7.23-1.64c.81,3.11,3.07,4.66,6.77,4.66,1.79,0,3.12-.35,4-1.04.88-.69,1.32-1.52,1.32-2.48s-.4-1.73-1.19-2.27c-.8-.54-2.33-1.04-4.61-1.51-4.24-.88-7.27-2.08-9.07-3.6-1.8-1.52-2.71-3.75-2.71-6.68s1.08-5.46,3.23-7.49,5.08-3.05,8.77-3.05c6.54,0,10.74,2.61,12.61,7.84Z"/>
      <path class="cls-2" d="M84.67,103.26v-32.98h6.69v3.61c1.24-2.75,3.4-4.13,6.49-4.13,2.67,0,4.85,1.07,6.56,3.21,1.7,2.14,2.55,5.25,2.55,9.34,0,4.35-.86,7.62-2.58,9.83-1.72,2.21-3.95,3.31-6.7,3.31s-4.77-1.08-5.96-3.25v11.06h-7.06ZM91.73,84.15c0,1.74.11,2.95.32,3.61.21.67.66,1.27,1.34,1.79.68.53,1.42.79,2.22.79.99,0,1.88-.51,2.66-1.53.78-1.02,1.17-3.26,1.17-6.73,0-4.87-1.29-7.3-3.86-7.3-.98,0-1.86.43-2.66,1.29-.8.86-1.2,2.33-1.2,4.39v3.66Z"/>
      <path class="cls-2" d="M133.16,94.94h-7.06c-.23-.98-.34-2.26-.34-3.86-1.24,1.76-2.47,2.93-3.69,3.5-1.23.58-2.62.87-4.18.87-2.31,0-4.17-.63-5.59-1.88-1.42-1.25-2.13-2.94-2.13-5.05,0-1.55.41-2.97,1.24-4.27.83-1.3,2.16-2.32,4-3.06,1.84-.74,5.18-1.29,10.04-1.65v-1.42c0-2.39-1.19-3.59-3.58-3.59-2.55,0-3.97,1.2-4.26,3.59l-6.71-.63c.44-2.8,1.77-4.79,3.98-5.96,2.21-1.17,4.72-1.76,7.52-1.76,1.68,0,3.25.2,4.74.59,1.48.39,2.64.98,3.47,1.76s1.39,1.61,1.68,2.48c.29.87.44,2.39.44,4.55v11.18c0,2.15.15,3.69.44,4.61ZM125.45,83.12c-5.08.5-7.62,2.04-7.62,4.61,0,.86.27,1.61.8,2.23.54.63,1.3.94,2.29.94,1.28,0,2.36-.53,3.22-1.6.87-1.07,1.3-2.38,1.3-3.94v-2.25Z"/>
      <path class="cls-2" d="M160.41,85.69c-.28,2.91-1.43,5.27-3.45,7.07-2.03,1.8-4.64,2.7-7.85,2.7-3.48,0-6.32-1.15-8.51-3.45-2.19-2.3-3.28-5.38-3.28-9.24s1.12-6.99,3.36-9.39c2.24-2.4,5.23-3.6,8.97-3.6,3.01,0,5.51.9,7.48,2.71,1.98,1.81,3.07,4.07,3.28,6.79l-6.79.39c-.23-2.96-1.51-4.44-3.86-4.44-2.88,0-4.32,2.36-4.32,7.08,0,3.14.4,5.14,1.21,5.98.8.85,1.79,1.27,2.94,1.27,2.25,0,3.59-1.42,4.03-4.27l6.79.42Z"/>
      <path class="cls-2" d="M186.46,83.83h-15.87c-.02.44-.02.82-.02,1.15,0,1.76.47,3.08,1.4,3.98.94.9,2.05,1.34,3.36,1.34,2.42,0,3.88-1.29,4.37-3.88l6.59.49c-1.84,5.7-5.58,8.54-11.21,8.54-2.46,0-4.54-.49-6.26-1.48-1.72-.98-3.13-2.42-4.25-4.31-1.12-1.89-1.67-4.15-1.67-6.79,0-3.92,1.12-7.09,3.36-9.5,2.24-2.41,5.12-3.61,8.63-3.61,3.17,0,5.9,1.12,8.17,3.36,2.27,2.24,3.41,5.81,3.41,10.71ZM170.56,79.61h8.76c-.23-3.38-1.62-5.08-4.17-5.08-2.73,0-4.26,1.69-4.59,5.08Z"/>
    </g>
  </g>
</svg>