<?xml version="1.0" encoding="UTF-8"?>
<svg id="Layer_2" data-name="Layer 2" xmlns="http://www.w3.org/2000/svg" viewBox="0 0 674.7 751.81">
  <defs>
    <style>
      .cls-1 {
        opacity: .8;
      }

      .cls-2 {
        fill: #f3f3f5;
      }

      .cls-3 {
        fill: #cececc;
      }

      .cls-4 {
        fill: #004990;
      }
    </style>
  </defs>
  <g id="Layer_4" data-name="Layer 4">
    <g class="cls-1">
      <rect class="cls-4" x="5.22" y="6.39" width="663.04" height="740" rx="52.97" ry="52.97"/>
      <path class="cls-3" d="M615.28,746.99c-168.66-.36-340.39,4.24-509.07,4.72,0,0-42.42.08-42.42.08-7.4.11-15.41-.27-22.56-2.52C17.63,742.44.22,719.4.05,694.84c-.1-1.17-.03-6.65-.03-8.08C1.68,478.31,4.91,269.51,2.67,61.03c-.09-7.31.93-14.88,3.63-21.74C14.06,18.07,35.54,3.01,58.18,3.11c42.39-.26,127.34-1.31,169.69-1.53C345.21.48,496.89.58,614.98,0c13.85.03,27.75,4.75,38.35,13.75,13.82,11.37,21.7,29.13,21.36,46.97-.07,125.1-.56,251.39-2.45,376.5-.71,47.88-1.83,122.29-2.35,169.69-.54,30.07-.29,60.15-.98,90.2-.2,3.58-.88,7.13-1.84,10.59-6.04,22.72-28.23,39.69-51.79,39.29h0ZM615.28,745.79c27.06.22,50.54-21.75,51.94-48.79.25-82.66-2.03-176.63-2.96-259.78-1.88-123.34-2.36-247.87-2.45-371.2,0,0,0-5.3,0-5.3,0,0,0-1.33,0-1.33,0,0-.06-1.17-.06-1.17-.27-13.24-6.5-26.12-16.67-34.59-8.3-7.12-19.22-10.79-30.1-10.85-31.19.12-183.1-.72-217.42-.72-109.56-.45-229.43-1.16-339.38-2.39-20.19-.44-39.6,12.71-46.84,31.56-2.54,6.32-3.59,12.96-3.58,19.79-2.23,208.5.99,417.27,2.65,625.73,0,0,.02,5.3.02,5.3,0,0,0,1.33,0,1.33,0,0,.07,1.2.07,1.2.36,20.05,14.56,38.79,33.86,44.35,3.06.85,6.17,1.49,9.33,1.83,0,0,4.79.23,4.79.23,0,0,5.3,0,5.3,0,182.92-.16,368.6,5.15,551.49,4.8h0Z"/>
    </g>
    <g>
      <path class="cls-2" d="M205.94,54.76v33.33h-7.67v-13.75h-10.4v13.75h-7.67v-33.33h7.67v12.99h10.4v-12.99h7.67Z"/>
      <path class="cls-2" d="M222.5,62.92c3.76,0,6.69,1.23,8.79,3.69,2.11,2.46,3.16,5.53,3.16,9.23s-1.09,6.69-3.28,9.12c-2.19,2.43-5.09,3.65-8.72,3.65s-6.32-1.2-8.43-3.61c-2.11-2.41-3.16-5.5-3.16-9.28,0-2.62.48-4.85,1.43-6.68.95-1.83,2.26-3.31,3.91-4.43,1.66-1.12,3.76-1.68,6.29-1.68ZM222.7,67.68c-1.38,0-2.42.53-3.12,1.6-.7,1.07-1.05,3.19-1.05,6.36,0,2.91.33,5,1,6.27s1.7,1.9,3.12,1.9c1.23,0,2.23-.54,2.99-1.62.76-1.08,1.14-3.14,1.14-6.19,0-3.24-.34-5.44-1.01-6.59-.67-1.16-1.7-1.73-3.08-1.73Z"/>
      <path class="cls-2" d="M247.25,69.09v10.42c0,1.3.19,2.17.58,2.61.39.44,1.3.66,2.75.66.67,0,1.43-.03,2.31-.1v5.4c-2.12.36-3.64.54-4.57.54-3.03,0-5.18-.58-6.45-1.75-1.27-1.16-1.9-3.27-1.9-6.31v-11.47h-3.91v-5.66h4.32l.59-7.28,6.27-.49v7.76h5.3v5.66h-5.3Z"/>
      <path class="cls-2" d="M278.52,76.98h-15.87c-.02.44-.02.82-.02,1.15,0,1.76.47,3.08,1.4,3.98.94.9,2.05,1.34,3.36,1.34,2.42,0,3.88-1.29,4.37-3.88l6.59.49c-1.84,5.7-5.58,8.54-11.21,8.54-2.46,0-4.54-.49-6.26-1.48-1.72-.98-3.13-2.42-4.25-4.31-1.12-1.89-1.67-4.15-1.67-6.79,0-3.92,1.12-7.09,3.36-9.5,2.24-2.41,5.12-3.61,8.63-3.61,3.17,0,5.9,1.12,8.17,3.36,2.27,2.24,3.41,5.81,3.41,10.71ZM262.63,72.76h8.76c-.23-3.38-1.62-5.08-4.17-5.08-2.73,0-4.26,1.69-4.59,5.08Z"/>
      <path class="cls-2" d="M283.11,88.09v-33.33h7.28v33.33h-7.28Z"/>
      <path class="cls-2" d="M336.09,67.17l-8.18.51c-.11-4.7-1.95-7.06-5.5-7.06-4.08,0-6.12,3.62-6.12,10.86,0,4.18.55,7.02,1.66,8.51,1.11,1.49,2.66,2.23,4.65,2.23,3.23,0,5.2-2.1,5.92-6.3l7.57.46c-.49,3.99-1.97,7.02-4.46,9.09-2.48,2.07-5.52,3.11-9.12,3.11-4.41,0-8-1.52-10.75-4.57-2.76-3.04-4.14-7.25-4.14-12.62,0-5.03,1.33-9.15,4-12.35,2.67-3.21,6.31-4.81,10.94-4.81,8.01,0,12.52,4.3,13.53,12.92Z"/>
      <path class="cls-2" d="M350.46,62.92c3.76,0,6.69,1.23,8.79,3.69,2.11,2.46,3.16,5.53,3.16,9.23s-1.09,6.69-3.28,9.12c-2.19,2.43-5.09,3.65-8.72,3.65s-6.32-1.2-8.43-3.61c-2.11-2.41-3.16-5.5-3.16-9.28,0-2.62.48-4.85,1.43-6.68.95-1.83,2.26-3.31,3.91-4.43,1.66-1.12,3.76-1.68,6.29-1.68ZM350.65,67.68c-1.38,0-2.42.53-3.12,1.6-.7,1.07-1.05,3.19-1.05,6.36,0,2.91.33,5,1,6.27s1.7,1.9,3.12,1.9c1.23,0,2.23-.54,2.99-1.62.76-1.08,1.14-3.14,1.14-6.19,0-3.24-.34-5.44-1.01-6.59-.67-1.16-1.7-1.73-3.08-1.73Z"/>
      <path class="cls-2" d="M388.43,88.09h-7.28v-13.84c0-1.68-.07-2.82-.2-3.44-.13-.62-.45-1.14-.95-1.57-.5-.43-1.14-.65-1.9-.65-2.56,0-3.83,1.89-3.83,5.66v13.84h-7.28v-24.66h6.76v4.17c1.12-1.99,2.23-3.26,3.32-3.83,1.09-.57,2.27-.85,3.54-.85,2.34,0,4.23.63,5.66,1.89,1.43,1.26,2.15,3.74,2.15,7.43v15.84Z"/>
      <path class="cls-2" d="M402.64,69.09v10.42c0,1.3.19,2.17.58,2.61.39.44,1.3.66,2.75.66.67,0,1.43-.03,2.31-.1v5.4c-2.12.36-3.64.54-4.57.54-3.03,0-5.18-.58-6.45-1.75-1.27-1.16-1.9-3.27-1.9-6.31v-11.47h-3.91v-5.66h4.32l.59-7.28,6.27-.49v7.76h5.3v5.66h-5.3Z"/>
      <path class="cls-2" d="M419.07,88.09h-7.06v-24.66h6.67v4.59c1.03-3.42,2.8-5.13,5.32-5.13.36,0,.8.02,1.32.07v7.18c-1.48,0-2.63.23-3.46.68-.82.46-1.49,1.27-2.01,2.45-.52,1.18-.78,2.77-.78,4.77v10.03Z"/>
      <path class="cls-2" d="M450.88,88.09h-7.06c-.23-.98-.34-2.26-.34-3.86-1.24,1.76-2.47,2.93-3.69,3.5-1.23.58-2.62.87-4.18.87-2.31,0-4.17-.63-5.59-1.88-1.42-1.25-2.13-2.94-2.13-5.05,0-1.55.41-2.97,1.24-4.27.83-1.3,2.16-2.32,4-3.06,1.84-.74,5.18-1.29,10.04-1.65v-1.42c0-2.39-1.19-3.59-3.58-3.59-2.55,0-3.97,1.2-4.26,3.59l-6.71-.63c.44-2.8,1.77-4.79,3.98-5.96,2.21-1.17,4.72-1.76,7.52-1.76,1.68,0,3.25.2,4.74.59,1.48.39,2.64.98,3.47,1.76s1.39,1.61,1.68,2.48c.29.87.44,2.39.44,4.55v11.18c0,2.15.15,3.69.44,4.61ZM443.17,76.27c-5.08.5-7.62,2.04-7.62,4.61,0,.86.27,1.61.8,2.23.54.63,1.3.94,2.29.94,1.28,0,2.36-.53,3.22-1.6.87-1.07,1.3-2.38,1.3-3.94v-2.25Z"/>
      <path class="cls-2" d="M478.13,78.84c-.28,2.91-1.43,5.27-3.45,7.07-2.03,1.8-4.64,2.7-7.85,2.7-3.48,0-6.32-1.15-8.51-3.45-2.19-2.3-3.28-5.38-3.28-9.24s1.12-6.99,3.36-9.39c2.24-2.4,5.23-3.6,8.97-3.6,3.01,0,5.51.9,7.48,2.71,1.98,1.81,3.07,4.07,3.28,6.79l-6.79.39c-.23-2.96-1.51-4.44-3.86-4.44-2.88,0-4.32,2.36-4.32,7.08,0,3.14.4,5.14,1.21,5.98.8.85,1.79,1.27,2.94,1.27,2.25,0,3.59-1.42,4.03-4.27l6.79.42Z"/>
      <path class="cls-2" d="M490.24,69.09v10.42c0,1.3.19,2.17.58,2.61.39.44,1.3.66,2.75.66.67,0,1.43-.03,2.31-.1v5.4c-2.12.36-3.64.54-4.57.54-3.03,0-5.18-.58-6.45-1.75-1.27-1.16-1.9-3.27-1.9-6.31v-11.47h-3.91v-5.66h4.32l.59-7.28,6.27-.49v7.76h5.3v5.66h-5.3Z"/>
    </g>
  </g>
</svg>