<?xml version="1.0" encoding="UTF-8"?>
<svg id="Layer_2" data-name="Layer 2" xmlns="http://www.w3.org/2000/svg" viewBox="0 0 674.7 751.81">
  <defs>
    <style>
      .cls-1 {
        opacity: .8;
      }

      .cls-2 {
        fill: #f3f3f5;
      }

      .cls-3 {
        fill: #cececc;
      }

      .cls-4 {
        fill: #004990;
      }
    </style>
  </defs>
  <g id="Layer_4" data-name="Layer 4">
    <g class="cls-1">
      <rect class="cls-4" x="5.21" y="6.39" width="663.04" height="740" rx="52.97" ry="52.97"/>
      <path class="cls-3" d="M615.28,746.99c-168.66-.36-340.39,4.24-509.07,4.72,0,0-42.42.08-42.42.08-7.4.11-15.41-.27-22.56-2.52C17.63,742.44.22,719.4.05,694.84c-.1-1.17-.03-6.65-.03-8.08C1.68,478.31,4.91,269.51,2.67,61.03c-.1-7.31.93-14.88,3.63-21.74C14.06,18.07,35.54,3.01,58.18,3.11c42.39-.26,127.34-1.31,169.69-1.53C345.21.48,496.89.58,614.98,0c13.85.03,27.75,4.75,38.35,13.75,13.81,11.37,21.7,29.13,21.36,46.97-.06,125.1-.56,251.39-2.45,376.5-.71,47.88-1.83,122.29-2.35,169.69-.54,30.07-.29,60.15-.98,90.2-.2,3.58-.88,7.13-1.84,10.59-6.04,22.72-28.23,39.69-51.79,39.29h0ZM615.28,745.79c27.06.22,50.54-21.75,51.94-48.79.25-82.66-2.03-176.63-2.96-259.78-1.88-123.34-2.36-247.87-2.45-371.2,0,0,0-5.3,0-5.3,0,0,0-1.33,0-1.33l-.06-1.17c-.27-13.24-6.5-26.12-16.67-34.59-8.3-7.12-19.22-10.79-30.1-10.85-31.19.12-183.1-.72-217.42-.72-109.56-.45-229.43-1.16-339.38-2.39-20.19-.44-39.6,12.71-46.84,31.56-2.54,6.32-3.59,12.96-3.58,19.79-2.23,208.5.99,417.27,2.65,625.73,0,0,.02,5.3.02,5.3,0,0,0,1.33,0,1.33,0,0,.07,1.2.07,1.2.36,20.05,14.56,38.79,33.86,44.35,3.06.85,6.17,1.49,9.33,1.83,0,0,4.79.23,4.79.23,0,0,5.3,0,5.3,0,182.92-.16,368.6,5.15,551.49,4.8h0Z"/>
    </g>
    <g>
      <path class="cls-2" d="M196.69,88.09l-8.22-27.17v27.17h-6.54v-33.33h12.16l5.85,19.95,6.15-19.95h12.19v33.33h-7.86v-27.17l-8.38,27.17h-5.34Z"/>
      <path class="cls-2" d="M246.72,76.98h-15.87c-.02.44-.02.82-.02,1.15,0,1.76.47,3.08,1.4,3.98.94.9,2.05,1.34,3.36,1.34,2.42,0,3.88-1.29,4.37-3.88l6.59.49c-1.84,5.7-5.58,8.54-11.21,8.54-2.46,0-4.54-.49-6.26-1.48-1.72-.98-3.13-2.42-4.25-4.31-1.12-1.89-1.67-4.15-1.67-6.79,0-3.92,1.12-7.09,3.36-9.5,2.24-2.41,5.12-3.61,8.63-3.61,3.17,0,5.9,1.12,8.17,3.36,2.27,2.24,3.41,5.81,3.41,10.71ZM230.83,72.76h8.76c-.23-3.38-1.62-5.08-4.17-5.08-2.73,0-4.26,1.69-4.59,5.08Z"/>
      <path class="cls-2" d="M272.82,88.09h-7.06c-.23-.98-.34-2.26-.34-3.86-1.24,1.76-2.47,2.93-3.69,3.5-1.23.58-2.62.87-4.18.87-2.31,0-4.17-.63-5.59-1.88-1.42-1.25-2.13-2.94-2.13-5.05,0-1.55.41-2.97,1.24-4.27.83-1.3,2.16-2.32,4-3.06,1.84-.74,5.18-1.29,10.04-1.65v-1.42c0-2.39-1.19-3.59-3.58-3.59-2.55,0-3.97,1.2-4.26,3.59l-6.71-.63c.44-2.8,1.77-4.79,3.98-5.96,2.21-1.17,4.72-1.76,7.52-1.76,1.68,0,3.25.2,4.74.59,1.48.39,2.64.98,3.47,1.76s1.39,1.61,1.68,2.48c.29.87.44,2.39.44,4.55v11.18c0,2.15.15,3.69.44,4.61ZM265.1,76.27c-5.08.5-7.62,2.04-7.62,4.61,0,.86.27,1.61.8,2.23.54.63,1.3.94,2.29.94,1.28,0,2.36-.53,3.22-1.6.87-1.07,1.3-2.38,1.3-3.94v-2.25Z"/>
      <path class="cls-2" d="M278.38,88.09v-33.33h7.28v33.33h-7.28Z"/>
      <path class="cls-2" d="M312.42,75.71v12.38h-7.93v-33.33h13.13c2.93,0,5.17.31,6.73.94,1.55.63,2.94,1.75,4.16,3.36s1.83,3.59,1.83,5.93c0,1.64-.33,3.25-.98,4.81-.65,1.56-1.57,2.79-2.76,3.69-1.19.9-2.34,1.49-3.45,1.78-1.12.29-2.86.44-5.24.44h-5.49ZM312.15,69.66h5.08c1.94,0,3.3-.45,4.08-1.34.78-.89,1.17-1.92,1.17-3.08,0-1.35-.44-2.42-1.31-3.22-.87-.8-2.19-1.2-3.97-1.2h-5.05v8.84Z"/>
      <path class="cls-2" d="M334.32,88.09v-33.33h7.28v33.33h-7.28Z"/>
      <path class="cls-2" d="M369.08,88.09h-7.06c-.23-.98-.34-2.26-.34-3.86-1.24,1.76-2.47,2.93-3.69,3.5-1.23.58-2.62.87-4.18.87-2.31,0-4.17-.63-5.59-1.88-1.42-1.25-2.13-2.94-2.13-5.05,0-1.55.41-2.97,1.24-4.27.83-1.3,2.16-2.32,4-3.06,1.84-.74,5.18-1.29,10.04-1.65v-1.42c0-2.39-1.19-3.59-3.58-3.59-2.55,0-3.97,1.2-4.26,3.59l-6.71-.63c.44-2.8,1.77-4.79,3.98-5.96,2.21-1.17,4.72-1.76,7.52-1.76,1.68,0,3.25.2,4.74.59,1.48.39,2.64.98,3.47,1.76s1.39,1.61,1.68,2.48c.29.87.44,2.39.44,4.55v11.18c0,2.15.15,3.69.44,4.61ZM361.37,76.27c-5.08.5-7.62,2.04-7.62,4.61,0,.86.27,1.61.8,2.23.54.63,1.3.94,2.29.94,1.28,0,2.36-.53,3.22-1.6.87-1.07,1.3-2.38,1.3-3.94v-2.25Z"/>
      <path class="cls-2" d="M396.09,88.09h-7.28v-13.84c0-1.68-.07-2.82-.2-3.44-.13-.62-.45-1.14-.95-1.57-.5-.43-1.14-.65-1.9-.65-2.56,0-3.83,1.89-3.83,5.66v13.84h-7.28v-24.66h6.76v4.17c1.12-1.99,2.23-3.26,3.32-3.83,1.09-.57,2.27-.85,3.54-.85,2.34,0,4.23.63,5.66,1.89,1.43,1.26,2.15,3.74,2.15,7.43v15.84Z"/>
      <path class="cls-2" d="M423.53,88.09h-7.28v-13.84c0-1.68-.07-2.82-.2-3.44-.13-.62-.45-1.14-.95-1.57-.5-.43-1.14-.65-1.9-.65-2.56,0-3.83,1.89-3.83,5.66v13.84h-7.28v-24.66h6.76v4.17c1.12-1.99,2.23-3.26,3.32-3.83,1.09-.57,2.27-.85,3.54-.85,2.34,0,4.23.63,5.66,1.89,1.43,1.26,2.15,3.74,2.15,7.43v15.84Z"/>
      <path class="cls-2" d="M436.81,54.08v7.28h-7.28v-7.28h7.28ZM436.81,63.43v24.66h-7.28v-24.66h7.28Z"/>
      <path class="cls-2" d="M464.22,88.09h-7.28v-13.84c0-1.68-.07-2.82-.2-3.44-.13-.62-.45-1.14-.95-1.57-.5-.43-1.14-.65-1.9-.65-2.56,0-3.83,1.89-3.83,5.66v13.84h-7.28v-24.66h6.76v4.17c1.12-1.99,2.23-3.26,3.32-3.83,1.09-.57,2.27-.85,3.54-.85,2.34,0,4.23.63,5.66,1.89,1.43,1.26,2.15,3.74,2.15,7.43v15.84Z"/>
      <path class="cls-2" d="M494.86,63.99c-.77-.16-1.41-.24-1.93-.24-1.61,0-2.56.72-2.83,2.15,1.32,1.38,1.98,2.95,1.98,4.69,0,2.33-.97,4.18-2.92,5.57-1.94,1.38-4.75,2.08-8.41,2.08-1.3,0-2.57-.12-3.81-.37-.83.49-1.25,1.12-1.25,1.88,0,.85.35,1.41,1.05,1.69.7.28,2.38.48,5.05.61,3.79.2,6.4.43,7.84.71,1.43.28,2.64.94,3.61,2,.98,1.06,1.46,2.38,1.46,3.96,0,2.26-1.05,4.17-3.14,5.74-2.09,1.56-5.8,2.34-11.12,2.34-5,0-8.37-.54-10.11-1.62-1.74-1.08-2.61-2.46-2.61-4.12,0-2.2,1.41-3.68,4.22-4.45-2.08-1.04-3.12-2.51-3.12-4.39,0-2.36,1.64-4.2,4.93-5.52-2.91-1.2-4.37-3.21-4.37-6.02,0-2.29,1-4.15,3.01-5.59,2.01-1.43,4.79-2.15,8.34-2.15,2.25,0,4.42.36,6.52,1.07.15-1.4.56-2.55,1.23-3.46.67-.9,2.11-1.35,4.31-1.35.72,0,1.4.07,2.05.2v4.61ZM475.85,87.92c-.29,0-.66.2-1.11.59-.45.39-.67.86-.67,1.42,0,1.11.71,1.8,2.12,2.08,1.42.28,3.08.42,4.98.42,2.49,0,4.24-.19,5.24-.56,1-.38,1.5-.98,1.5-1.81,0-.63-.42-1.12-1.26-1.46-.84-.34-3.07-.51-6.7-.51l-1.46.02c-.9,0-1.5-.02-1.81-.07-.34-.06-.62-.1-.83-.1ZM480.69,66.85c-1.25,0-2.23.34-2.93,1.01-.71.67-1.06,1.57-1.06,2.67,0,2.51,1.34,3.76,4.02,3.76,1.3,0,2.32-.37,3.05-1.1.74-.73,1.11-1.62,1.11-2.66,0-.98-.35-1.83-1.05-2.58-.7-.74-1.74-1.11-3.14-1.11Z"/>
    </g>
  </g>
</svg>