<?xml version="1.0" encoding="UTF-8"?>
<svg id="Layer_2" data-name="Layer 2" xmlns="http://www.w3.org/2000/svg" viewBox="0 0 674.7 751.81">
  <defs>
    <style>
      .cls-1 {
        opacity: .8;
      }

      .cls-2 {
        fill: #f3f3f5;
      }

      .cls-3 {
        fill: #cececc;
      }

      .cls-4 {
        fill: #004990;
      }
    </style>
  </defs>
  <g id="Layer_1-2" data-name="Layer 1">
    <g class="cls-1">
      <rect class="cls-4" x="5.22" y="6.39" width="663.04" height="740" rx="52.97" ry="52.97"/>
      <path class="cls-3" d="M615.28,746.99c-168.66-.36-340.39,4.24-509.07,4.72,0,0-42.42.08-42.42.08-7.4.11-15.41-.27-22.56-2.52C17.63,742.44.22,719.4.05,694.84c-.1-1.17-.03-6.65-.03-8.08C1.68,478.31,4.91,269.51,2.67,61.03c-.09-7.31.93-14.88,3.63-21.74C14.06,18.07,35.54,3.01,58.18,3.11c42.39-.26,127.34-1.31,169.69-1.53C345.21.48,496.89.58,614.98,0c13.85.03,27.75,4.75,38.35,13.75,13.81,11.37,21.7,29.13,21.36,46.97-.06,125.1-.56,251.39-2.45,376.5-.71,47.88-1.84,122.29-2.35,169.69-.54,30.07-.29,60.15-.98,90.2-.2,3.58-.88,7.13-1.84,10.59-6.04,22.72-28.23,39.69-51.79,39.29h0ZM615.28,745.79c27.06.22,50.54-21.75,51.94-48.79.25-82.66-2.03-176.63-2.96-259.78-1.88-123.34-2.36-247.87-2.45-371.2,0,0,0-5.3,0-5.3,0,0,0-1.33,0-1.33,0,0-.06-1.17-.06-1.17-.27-13.24-6.5-26.12-16.67-34.59-8.3-7.12-19.22-10.79-30.1-10.85-31.19.12-183.1-.72-217.42-.72-109.56-.45-229.43-1.16-339.38-2.39-20.19-.44-39.6,12.71-46.84,31.56-2.54,6.32-3.59,12.96-3.58,19.79-2.23,208.5.98,417.27,2.65,625.73,0,0,.02,5.3.02,5.3,0,0,0,1.33,0,1.33,0,0,.07,1.2.07,1.2.36,20.05,14.56,38.79,33.86,44.35,3.06.85,6.17,1.49,9.33,1.83,0,0,4.79.23,4.79.23,0,0,5.3,0,5.3,0,182.92-.16,368.6,5.15,551.49,4.8h0Z"/>
    </g>
  </g>
  <g id="Layer_4" data-name="Layer 4">
    <g>
      <path class="cls-2" d="M265.96,74.34v13.21h-7.86v-33.33h14.65c2.7,0,4.87.31,6.51.94,1.63.63,2.99,1.78,4.06,3.45s1.61,3.54,1.61,5.59c0,4-1.93,6.87-5.79,8.61l6.15,14.73h-8.63l-5.12-13.21h-5.59ZM265.96,60.16v8.5h4.79c1.56,0,2.7-.11,3.41-.33.71-.22,1.34-.71,1.89-1.46.55-.76.83-1.62.83-2.6s-.28-1.76-.83-2.49c-.55-.73-1.16-1.18-1.81-1.36-.65-.17-1.87-.26-3.66-.26h-4.61Z"/>
      <path class="cls-2" d="M311.9,76.44h-15.87c-.02.44-.02.82-.02,1.15,0,1.76.47,3.08,1.4,3.98.94.9,2.05,1.34,3.36,1.34,2.42,0,3.88-1.29,4.37-3.88l6.59.49c-1.84,5.7-5.58,8.54-11.21,8.54-2.46,0-4.54-.49-6.26-1.48-1.72-.98-3.13-2.42-4.25-4.31-1.12-1.89-1.67-4.15-1.67-6.79,0-3.92,1.12-7.09,3.36-9.5,2.24-2.41,5.12-3.61,8.63-3.61,3.17,0,5.9,1.12,8.17,3.36,2.27,2.24,3.41,5.81,3.41,10.71ZM296.01,72.22h8.76c-.23-3.38-1.62-5.08-4.17-5.08-2.73,0-4.26,1.69-4.59,5.08Z"/>
      <path class="cls-2" d="M334.95,68.85l-5.3,1.42c-.62-2.23-2.22-3.34-4.81-3.34-2.44,0-3.66.74-3.66,2.23,0,.59.22,1.06.67,1.41s1.62.65,3.5.89c2.82.37,4.9.8,6.25,1.29,1.35.49,2.42,1.31,3.21,2.47.79,1.16,1.18,2.58,1.18,4.27,0,2.54-.96,4.61-2.89,6.2-1.93,1.6-4.63,2.39-8.09,2.39-6.28,0-10.03-2.43-11.25-7.3l6.13-.9c.5,2.21,2.33,3.32,5.47,3.32,1.2,0,2.22-.22,3.05-.65s1.25-1.02,1.25-1.75c0-1.14-.92-1.82-2.76-2.03-4.98-.61-8.26-1.57-9.83-2.86-1.57-1.29-2.36-3.1-2.36-5.41s.91-4.28,2.73-5.81c1.82-1.53,4.38-2.29,7.67-2.29,2.6,0,4.69.51,6.25,1.54s2.76,2.67,3.59,4.93Z"/>
      <path class="cls-2" d="M361.22,62.89v24.66h-6.74v-4.2c-1.27,3.14-3.7,4.71-7.28,4.71-1.86,0-3.28-.35-4.27-1.04-.99-.69-1.71-1.63-2.14-2.83-.43-1.2-.65-2.92-.65-5.19v-16.11h7.06v16.11c0,2.21.91,3.32,2.73,3.32.93,0,1.73-.26,2.42-.79.68-.53,1.12-1.09,1.31-1.7.19-.6.28-1.64.28-3.1v-13.84h7.28Z"/>
      <path class="cls-2" d="M367.23,87.55v-33.33h7.28v33.33h-7.28Z"/>
      <path class="cls-2" d="M388.69,68.56v10.42c0,1.3.19,2.17.58,2.61.39.44,1.3.66,2.75.66.67,0,1.43-.03,2.31-.1v5.4c-2.12.36-3.64.54-4.57.54-3.03,0-5.18-.58-6.45-1.75-1.27-1.16-1.9-3.27-1.9-6.31v-11.47h-3.91v-5.66h4.32l.59-7.28,6.27-.49v7.76h5.3v5.66h-5.3Z"/>
      <path class="cls-2" d="M416.52,68.85l-5.3,1.42c-.62-2.23-2.22-3.34-4.81-3.34-2.44,0-3.66.74-3.66,2.23,0,.59.22,1.06.67,1.41s1.62.65,3.5.89c2.82.37,4.9.8,6.25,1.29,1.35.49,2.42,1.31,3.21,2.47.79,1.16,1.18,2.58,1.18,4.27,0,2.54-.96,4.61-2.89,6.2-1.93,1.6-4.63,2.39-8.09,2.39-6.28,0-10.03-2.43-11.25-7.3l6.13-.9c.5,2.21,2.33,3.32,5.47,3.32,1.2,0,2.22-.22,3.05-.65s1.25-1.02,1.25-1.75c0-1.14-.92-1.82-2.76-2.03-4.98-.61-8.26-1.57-9.83-2.86-1.57-1.29-2.36-3.1-2.36-5.41s.91-4.28,2.73-5.81c1.82-1.53,4.38-2.29,7.67-2.29,2.6,0,4.69.51,6.25,1.54s2.76,2.67,3.59,4.93Z"/>
    </g>
  </g>
</svg>