<?xml version="1.0" encoding="UTF-8"?>
<svg id="Layer_2" data-name="Layer 2" xmlns="http://www.w3.org/2000/svg" xmlns:xlink="http://www.w3.org/1999/xlink" viewBox="0 0 381 233">
  <defs>
    <style>
      .cls-1 {
        fill: #004990;
        stroke: #fff;
        stroke-width: 5px;
      }

      .cls-1, .cls-2 {
        stroke-miterlimit: 10;
      }

      .cls-2 {
        fill: url(#radial-gradient);
        filter: url(#drop-shadow-1);
        stroke: #cececc;
        stroke-width: 12px;
      }
    </style>
    <radialGradient id="radial-gradient" cx="668.43" cy="103.7" fx="668.43" fy="103.7" r="232.16" gradientTransform="translate(-279.52 67.31) rotate(-1.54) scale(.68 .47) skewX(-.57)" gradientUnits="userSpaceOnUse">
      <stop offset="0" stop-color="#213a74"/>
      <stop offset=".97" stop-color="#142235"/>
    </radialGradient>
    <filter id="drop-shadow-1" x="0" y="0" width="381" height="233" filterUnits="userSpaceOnUse">
      <feOffset dx="15" dy="15"/>
      <feGaussianBlur result="blur" stdDeviation="8"/>
      <feFlood flood-color="#030e1c" flood-opacity=".75"/>
      <feComposite in2="blur" operator="in"/>
      <feComposite in="SourceGraphic"/>
    </filter>
  </defs>
  <g id="Layer_2-2" data-name="Layer 2">
    <g>
      <rect class="cls-2" x="12.74" y="15.56" width="323.91" height="176.29" rx="88.15" ry="88.15"/>
      <g>
        <path class="cls-1" d="M104.28,120.64c0,6.03-1.88,11.03-5.65,14.99-4.29,4.55-11.83,6.83-22.61,6.83-.82,0-2-.02-3.54-.05h-3.49c-12.09,0-19.28-.25-21.58-.74-.95-.2-1.42-.7-1.42-1.52,0-3.51.2-8.81.61-15.92.41-7.11.61-12.43.61-15.97,0-3.8-.2-10.94-.59-21.43-.1-2.69-.28-6.72-.54-12.09l-.05-.69c-.03-.62.48-1,1.55-1.13s4.86-.2,11.38-.2c10.45,0,16.56.03,18.33.1,8.06.29,14.01,1.61,17.84,3.93,5.08,3.11,7.62,8.37,7.62,15.78,0,1.93-.59,3.98-1.77,6.14-.85,1.54-1.97,3.08-3.34,4.62-1.21,1.34-1.82,1.97-1.82,1.87,0,.23.42.59,1.28,1.08,2.29,1.31,4.1,3.39,5.41,6.24,1.18,2.56,1.77,5.28,1.77,8.16ZM83.15,92.97c0-2.82-1.41-4.68-4.23-5.6-1.57-.49-4.16-.74-7.77-.74s-5.31.26-5.31.79c0,.62-.06,1.57-.17,2.83-.12,1.26-.17,2.2-.17,2.83,0,3.28.28,5.11.83,5.5.36.29,2.44.44,6.24.44,7.04,0,10.57-2.02,10.57-6.05ZM84.62,120.45c0-2.95-1.23-4.95-3.69-6-1.57-.65-4.13-.98-7.67-.98-4.23,0-6.52.16-6.88.47-.36.31-.54,2.32-.54,6.02s.21,6,.64,6.41c.43.41,2.79.61,7.08.61,3.54,0,6.03-.28,7.47-.84,2.39-.95,3.59-2.85,3.59-5.7Z"/>
        <path class="cls-1" d="M155.2,115.19c0,3.31-1.07,5.19-3.2,5.65-.36.07-3.75.43-10.17,1.08-3.87.43-9.63.93-17.3,1.52.46,2.13,1.85,3.75,4.18,4.87,1.9.92,4.06,1.38,6.49,1.38,2.92,0,5.85-.79,8.8-2.36,1.25-.79,2.49-1.57,3.74-2.36.69.33,1.84,2,3.46,5.01s2.43,4.93,2.43,5.75c0,.23-.25.61-.74,1.13-4,4.29-10.21,6.44-18.63,6.44-7.8,0-14.09-2.28-18.87-6.83-4.92-4.62-7.37-10.8-7.37-18.53s2.2-13.71,6.59-18.53c4.52-4.98,10.52-7.47,17.99-7.47,6.29,0,11.63,2.29,16.02,6.88,4.39,4.59,6.59,10.04,6.59,16.37ZM137.99,112.19c0-2.03-.72-3.82-2.16-5.36-1.44-1.54-3.16-2.31-5.16-2.31s-3.77.87-5.11,2.61c-1.25,1.61-1.87,3.49-1.87,5.65,0,.88.46,1.33,1.38,1.33,2.42,0,6.19-.38,11.3-1.13,1.08-.16,1.62-.43,1.62-.79Z"/>
        <path class="cls-1" d="M209.55,129.1c0,9.34-1.97,16.04-5.9,20.1-4.06,4.16-10.81,6.24-20.25,6.24-2.75,0-6.5-.44-11.25-1.33-6.06-1.11-9.09-2.42-9.09-3.93,0-.62.7-3.83,2.11-9.63.23-.92.59-1.38,1.08-1.38.16.03.34.1.54.2,5.04,2.49,9.71,3.74,14.01,3.74,2.36,0,4.7-.59,7.03-1.77,2.82-1.41,4.23-3.18,4.23-5.31v-3.29c-3.34,3.15-7.63,4.72-12.88,4.72-6.16,0-11.22-2.21-15.19-6.64-3.83-4.26-5.75-9.5-5.75-15.73s1.83-11.45,5.5-15.58c3.83-4.29,8.85-6.44,15.04-6.44,4.95,0,8.73,1.77,11.35,5.31.52.72.88,1.08,1.08,1.08.29,0,.44-.59.44-1.77,0-2.62.29-3.93.88-3.93.52,0,3.36.27,8.5.81,5.14.54,7.81.84,8.01.91.56.2.84.62.84,1.28,0,2.26-.07,5.64-.22,10.12-.15,4.49-.22,7.86-.22,10.12,0,1.34.02,3.36.05,6.05s.05,4.7.05,6.04ZM192.55,115.48c0-2.39-.79-4.46-2.38-6.22-1.59-1.75-3.58-2.63-5.97-2.63s-4.38.89-5.97,2.68c-1.59,1.79-2.38,3.88-2.38,6.27s.81,4.46,2.43,6.19c1.62,1.74,3.6,2.61,5.92,2.61s4.38-.88,5.97-2.65c1.59-1.77,2.38-3.85,2.38-6.24Z"/>
        <path class="cls-1" d="M236.24,119.32c0,2.39.05,5.96.15,10.69.1,4.74.15,8.28.15,10.64,0,.69-.41,1.1-1.23,1.23-1.11.2-3.62.29-7.52.29s-6.46-.1-7.57-.29c-.72-.13-1.16-.34-1.33-.64-.07-.13-.1-.62-.1-1.47,0-2.26.05-5.66.15-10.2.1-4.54.15-7.95.15-10.25,0-9.31-.36-16.71-1.08-22.21-.07-.52-.1-.87-.1-1.03,0-.66.44-.98,1.33-.98s2.32.1,4.2.29c1.88.2,3.3.29,4.25.29s2.38-.08,4.28-.25,3.33-.25,4.28-.25c.79,0,1.18.33,1.18.98,0,.13-.03.44-.1.93-.72,6.39-1.08,13.79-1.08,22.21ZM237.52,82.8c0,5.7-3.21,8.55-9.63,8.55-2.75,0-5.03-.72-6.83-2.16-1.97-1.57-2.95-3.7-2.95-6.39s1.02-4.65,3.05-6.29c1.87-1.51,4.11-2.26,6.73-2.26s4.77.77,6.63,2.31c2,1.64,3,3.72,3,6.24Z"/>
        <path class="cls-1" d="M294.58,140.45c0,.88-.46,1.39-1.38,1.52-.92.13-3.31.2-7.18.2-4.13,0-6.68-.1-7.67-.29-.98-.2-1.47-.87-1.47-2.01,0-1.54.05-3.87.15-6.98.1-3.11.15-5.46.15-7.03,0-1.21-.03-3.02-.1-5.43-.07-2.41-.1-4.22-.1-5.43,0-4.49-1.95-6.73-5.85-6.73-1.28,0-2.77.56-4.47,1.67-1.83,1.25-2.75,2.47-2.75,3.69v26.54c0,1.08-.51,1.69-1.52,1.82-1.15.13-3.49.2-7.03.2-3.83,0-6.32-.1-7.47-.29-1.02-.16-1.52-.7-1.52-1.62,0-2.56.02-6.41.05-11.55.03-5.14.05-9.01.05-11.6,0-8.16-.64-14.56-1.92-19.22-.07-.29-.1-.54-.1-.74,0-.52.25-.88.74-1.08,2.06-.23,4.82-.59,8.26-1.08,5.21-1.02,8.14-1.52,8.8-1.52.36,0,.64,1.11.83,3.32.2,2.21.47,3.32.84,3.32-.36,0,1.4-1.14,5.28-3.42,3.88-2.28,7.28-3.42,10.2-3.42,4.16,0,7.63.98,10.42,2.95,3.11,2.26,4.67,5.41,4.67,9.44v15.68c0,2.13.02,5.32.05,9.56.03,4.24.05,7.43.05,9.56Z"/>
      </g>
    </g>
  </g>
</svg>