<?xml version="1.0" encoding="UTF-8"?>
<svg id="Layer_2" data-name="Layer 2" xmlns="http://www.w3.org/2000/svg" xmlns:xlink="http://www.w3.org/1999/xlink" viewBox="0 0 505 233">
  <defs>
    <style>
      .cls-1 {
        fill: #004990;
        stroke: #fff;
        stroke-width: 5px;
      }

      .cls-1, .cls-2 {
        stroke-miterlimit: 10;
      }

      .cls-2 {
        fill: url(#radial-gradient);
        filter: url(#drop-shadow-1);
        stroke: #cececc;
        stroke-width: 12px;
      }
    </style>
    <radialGradient id="radial-gradient" cx="954.12" cy="104.16" fx="954.12" fy="104.16" r="312.35" gradientTransform="translate(-410.57 72.77) rotate(-1.54) scale(.68 .47) skewX(-.57)" gradientUnits="userSpaceOnUse">
      <stop offset="0" stop-color="#213a74"/>
      <stop offset=".97" stop-color="#142235"/>
    </radialGradient>
    <filter id="drop-shadow-1" x="0" y="0" width="505" height="233" filterUnits="userSpaceOnUse">
      <feOffset dx="15" dy="15"/>
      <feGaussianBlur result="blur" stdDeviation="8"/>
      <feFlood flood-color="#030e1c" flood-opacity=".75"/>
      <feComposite in2="blur" operator="in"/>
      <feComposite in="SourceGraphic"/>
    </filter>
  </defs>
  <g id="Layer_2-2" data-name="Layer 2">
    <g>
      <rect class="cls-2" x="13.06" y="16.01" width="448.91" height="176.29" rx="88.15" ry="88.15"/>
      <g>
        <path class="cls-1" d="M96.85,126.53c0,.52-.34,1.21-1.03,2.06-6.03,7.18-14.04,10.76-24.03,10.76s-18.51-3.49-24.87-10.47c-6.19-6.75-9.29-15.27-9.29-25.56s3.03-18.41,9.09-25.36c6.32-7.27,14.37-10.91,24.13-10.91,10.62,0,18.94,3.26,24.97,9.78.66.72.98,1.36.98,1.92,0,.62-1.14,2.93-3.42,6.93-2.28,4-3.71,6.24-4.3,6.73-.26.26-.59.39-.98.39-.16,0-.98-.66-2.46-1.97-1.77-1.57-3.51-2.8-5.21-3.69-2.59-1.31-5.28-1.97-8.06-1.97-4.82,0-8.67,1.8-11.55,5.41-2.65,3.34-3.98,7.47-3.98,12.38s1.33,9.16,3.98,12.53c2.88,3.67,6.73,5.5,11.55,5.5,2.85,0,5.55-.62,8.11-1.87,1.67-.82,3.38-1.97,5.11-3.44,1.44-1.25,2.24-1.87,2.41-1.87.33,0,.66.18.98.54.52.59,1.95,2.64,4.28,6.14,2.39,3.64,3.59,5.64,3.59,6Z"/>
        <path class="cls-1" d="M149.09,113.46c0,7.47-2.29,13.53-6.86,18.18-4.57,4.65-10.58,6.98-18.01,6.98s-13.14-2.29-17.79-6.88c-4.65-4.59-6.98-10.48-6.98-17.69,0-7.6,2.23-13.77,6.68-18.5,4.46-4.73,10.48-7.1,18.09-7.1s13.4,2.32,17.99,6.96c4.59,4.64,6.88,10.66,6.88,18.06ZM132.97,113.46c0-2.59-.8-4.87-2.41-6.86-1.61-1.98-3.69-2.97-6.24-2.97s-4.72,1.02-6.39,3.05c-1.57,1.9-2.36,4.16-2.36,6.78s.79,4.93,2.36,6.83c1.67,2.03,3.8,3.05,6.39,3.05s4.67-1.02,6.34-3.05c1.54-1.9,2.31-4.18,2.31-6.83Z"/>
        <path class="cls-1" d="M203.89,136.22c0,.88-.46,1.39-1.38,1.52-.92.13-3.31.2-7.18.2-4.13,0-6.68-.1-7.67-.29-.98-.2-1.47-.87-1.47-2.01,0-1.54.05-3.87.15-6.98.1-3.11.15-5.46.15-7.03,0-1.21-.03-3.02-.1-5.43-.07-2.41-.1-4.22-.1-5.43,0-4.49-1.95-6.73-5.85-6.73-1.28,0-2.77.56-4.47,1.67-1.83,1.25-2.75,2.47-2.75,3.69v26.54c0,1.08-.51,1.69-1.52,1.82-1.15.13-3.49.2-7.03.2-3.83,0-6.32-.1-7.47-.29-1.02-.16-1.52-.7-1.52-1.62,0-2.56.02-6.41.05-11.55.03-5.14.05-9.01.05-11.6,0-8.16-.64-14.56-1.92-19.22-.07-.29-.1-.54-.1-.74,0-.52.25-.88.74-1.08,2.06-.23,4.82-.59,8.26-1.08,5.21-1.02,8.14-1.52,8.8-1.52.36,0,.64,1.11.83,3.32.2,2.21.47,3.32.84,3.32-.36,0,1.4-1.14,5.28-3.42,3.88-2.28,7.28-3.42,10.2-3.42,4.16,0,7.63.98,10.42,2.95,3.11,2.26,4.67,5.41,4.67,9.44v15.68c0,2.13.02,5.32.05,9.56.03,4.24.05,7.43.05,9.56Z"/>
        <path class="cls-1" d="M244.98,123.24c0,.98-.12,2.47-.37,4.47-.25,2-.37,3.46-.37,4.4s-.1,1.53-.29,1.79c-.2.26-.74.64-1.62,1.13-4.23,2.33-8.91,3.49-14.06,3.49-9.47,0-14.2-3.62-14.2-10.86,0-2.16.08-5.41.25-9.76.16-4.34.25-7.59.25-9.76,0-1.44-.83-2.16-2.51-2.16h-.64c-.29.03-.51.05-.64.05-1.25,0-1.87-.44-1.87-1.33,0-.52.04-1.33.12-2.41s.12-1.88.12-2.41c0-.69-.04-1.74-.12-3.15-.08-1.41-.12-2.46-.12-3.15s1.05-1.02,3.14-1.08c1.18-.03,1.82-.36,1.92-.98.2-1.25.26-3.21.2-5.9-.13-4.23-.2-6.24-.2-6.04,0-3.8.36-5.7,1.08-5.7.88,0,2.15.2,3.79.59,1.87.43,3.16.67,3.88.74,1.67.23,4.19.54,7.57.93.82.07,1.23.34,1.23.83,0,1.31-.11,3.29-.32,5.95-.21,2.65-.32,4.65-.32,6,0,1.61.47,2.41,1.42,2.41,1.15,0,2.88-.05,5.21-.15,2.33-.1,4.08-.15,5.26-.15.72,0,1.08.25,1.08.74,0,.75-.08,1.88-.25,3.39-.17,1.51-.25,2.64-.25,3.39s.02,1.93.05,3.44c.03,1.51.05,2.65.05,3.44,0,.69-.48,1.03-1.43,1.03-.66,0-1.75-.03-3.29-.07s-2.64-.07-3.29-.07h-3.69c-.49,0-.74.72-.74,2.16v3.49c.03,1.57.05,2.74.05,3.49,0,2.75.31,4.65.93,5.7.88,1.41,2.62,2.11,5.21,2.11.82,0,1.99-.19,3.51-.56,1.52-.38,2.6-.57,3.22-.57.69,0,1.03.36,1.03,1.08Z"/>
        <path class="cls-1" d="M268.32,115.08c0,2.39.05,5.96.15,10.69.1,4.74.15,8.28.15,10.64,0,.69-.41,1.1-1.23,1.23-1.11.2-3.62.29-7.52.29s-6.46-.1-7.57-.29c-.72-.13-1.16-.34-1.33-.64-.07-.13-.1-.62-.1-1.47,0-2.26.05-5.66.15-10.2.1-4.54.15-7.95.15-10.25,0-9.31-.36-16.71-1.08-22.21-.07-.52-.1-.87-.1-1.03,0-.66.44-.98,1.33-.98s2.32.1,4.2.29c1.88.2,3.3.29,4.25.29s2.38-.08,4.28-.25,3.33-.25,4.28-.25c.79,0,1.18.33,1.18.98,0,.13-.03.44-.1.93-.72,6.39-1.08,13.79-1.08,22.21ZM269.6,78.57c0,5.7-3.21,8.55-9.63,8.55-2.75,0-5.03-.72-6.83-2.16-1.97-1.57-2.95-3.7-2.95-6.39s1.02-4.65,3.05-6.29c1.87-1.51,4.11-2.26,6.73-2.26s4.77.77,6.63,2.31c2,1.64,3,3.72,3,6.24Z"/>
        <path class="cls-1" d="M326.66,136.22c0,.88-.46,1.39-1.38,1.52-.92.13-3.31.2-7.18.2-4.13,0-6.68-.1-7.67-.29-.98-.2-1.47-.87-1.47-2.01,0-1.54.05-3.87.15-6.98.1-3.11.15-5.46.15-7.03,0-1.21-.03-3.02-.1-5.43-.07-2.41-.1-4.22-.1-5.43,0-4.49-1.95-6.73-5.85-6.73-1.28,0-2.77.56-4.47,1.67-1.83,1.25-2.75,2.47-2.75,3.69v26.54c0,1.08-.51,1.69-1.52,1.82-1.15.13-3.49.2-7.03.2-3.83,0-6.32-.1-7.47-.29-1.02-.16-1.52-.7-1.52-1.62,0-2.56.02-6.41.05-11.55.03-5.14.05-9.01.05-11.6,0-8.16-.64-14.56-1.92-19.22-.07-.29-.1-.54-.1-.74,0-.52.25-.88.74-1.08,2.06-.23,4.82-.59,8.26-1.08,5.21-1.02,8.14-1.52,8.8-1.52.36,0,.64,1.11.83,3.32.2,2.21.47,3.32.84,3.32-.36,0,1.4-1.14,5.28-3.42,3.88-2.28,7.28-3.42,10.2-3.42,4.16,0,7.63.98,10.42,2.95,3.11,2.26,4.67,5.41,4.67,9.44v15.68c0,2.13.02,5.32.05,9.56.03,4.24.05,7.43.05,9.56Z"/>
        <path class="cls-1" d="M385.44,92.97c0,2.42-.12,6.06-.34,10.91-.23,4.85-.34,8.49-.34,10.91s.08,5.9.25,10.62c.16,4.72.25,8.24.25,10.57,0,.88-.41,1.44-1.23,1.67-1.25.33-3.88.49-7.91.49-3.57,0-6.06-.1-7.47-.29-.62-.1-1.02-.49-1.18-1.18-.1-.98-.2-1.97-.29-2.95-.16-1.51-.39-2.26-.69-2.26.46,0-1.2,1.11-4.96,3.34-3.77,2.23-7.19,3.34-10.27,3.34-8.68,0-13.83-3.92-15.43-11.75-.72-3.64-1.08-8.91-1.08-15.83,0-7.47.61-13.37,1.82-17.69.36-1.34,1.03-2.02,2.01-2.02,1.51,0,3.8.02,6.88.05,3.08.03,5.37.05,6.88.05,1.02,0,1.52.43,1.52,1.28,0,.23-.03.57-.1,1.03-.69,4.46-1.03,8.98-1.03,13.56,0,5.7.18,9.6.54,11.7.59,3.6,2.74,5.41,6.44,5.41,1.44,0,3.01-.64,4.69-1.92,1.69-1.28,2.56-2.6,2.63-3.98.07-1.21.1-9.44.1-24.67,0-1.08.08-1.72.25-1.92.2-.33.79-.49,1.77-.49,1.6,0,4.02.02,7.25.05,3.23.03,5.64.05,7.25.05.98,0,1.56.25,1.72.74.07.26.1.66.1,1.18Z"/>
        <path class="cls-1" d="M438.57,110.95c0,3.31-1.07,5.19-3.2,5.65-.36.07-3.75.43-10.17,1.08-3.87.43-9.63.93-17.3,1.52.46,2.13,1.85,3.75,4.18,4.87,1.9.92,4.06,1.38,6.49,1.38,2.92,0,5.85-.79,8.8-2.36,1.25-.79,2.49-1.57,3.74-2.36.69.33,1.84,2,3.46,5.01s2.43,4.93,2.43,5.75c0,.23-.25.61-.74,1.13-4,4.29-10.21,6.44-18.63,6.44-7.8,0-14.09-2.28-18.87-6.83-4.92-4.62-7.37-10.8-7.37-18.53s2.2-13.71,6.59-18.53c4.52-4.98,10.52-7.47,17.99-7.47,6.29,0,11.63,2.29,16.02,6.88,4.39,4.59,6.59,10.04,6.59,16.37ZM421.37,107.96c0-2.03-.72-3.82-2.16-5.36-1.44-1.54-3.16-2.31-5.16-2.31s-3.77.87-5.11,2.61c-1.25,1.61-1.87,3.49-1.87,5.65,0,.88.46,1.33,1.38,1.33,2.42,0,6.19-.38,11.3-1.13,1.08-.16,1.62-.43,1.62-.79Z"/>
      </g>
    </g>
  </g>
</svg>