<?xml version="1.0" encoding="UTF-8"?>
<svg id="Layer_2" data-name="Layer 2" xmlns="http://www.w3.org/2000/svg" xmlns:xlink="http://www.w3.org/1999/xlink" viewBox="0 0 333 232">
  <defs>
    <style>
      .cls-1 {
        fill: #004990;
        stroke: #fff;
        stroke-width: 5px;
      }

      .cls-1, .cls-2 {
        stroke-miterlimit: 10;
      }

      .cls-2 {
        fill: url(#radial-gradient);
        filter: url(#drop-shadow-1);
        stroke: #cececc;
        stroke-width: 12px;
      }
    </style>
    <radialGradient id="radial-gradient" cx="821.69" cy="103.15" fx="821.69" fy="103.15" r="201.58" gradientTransform="translate(-407.37 69.82) rotate(-1.54) scale(.68 .47) skewX(-.57)" gradientUnits="userSpaceOnUse">
      <stop offset="0" stop-color="#213a74"/>
      <stop offset=".97" stop-color="#142235"/>
    </radialGradient>
    <filter id="drop-shadow-1" x="0" y="0" width="333" height="232" filterUnits="userSpaceOnUse">
      <feOffset dx="15" dy="15"/>
      <feGaussianBlur result="blur" stdDeviation="8"/>
      <feFlood flood-color="#030e1c" flood-opacity=".75"/>
      <feComposite in2="blur" operator="in"/>
      <feComposite in="SourceGraphic"/>
    </filter>
  </defs>
  <g id="Layer_2-2" data-name="Layer 2">
    <g>
      <rect class="cls-2" x="13.39" y="15.01" width="274.91" height="176.29" rx="88.15" ry="88.15"/>
      <g>
        <path class="cls-1" d="M110.95,69.51c0,3.74-.16,9.35-.47,16.83-.31,7.49-.47,13.12-.47,16.88v32.39c0,.88-.48,1.33-1.43,1.33-.79,0-1.97.03-3.56.1-1.59.06-2.78.1-3.56.1-.85,0-2.13-.07-3.83-.2-1.7-.13-2.98-.2-3.83-.2-.59,0-1.29-.54-2.11-1.62-2.36-3.18-7.67-10.22-15.92-21.13-2.26-3.05-5.7-7.54-10.32-13.47-.13-.2-.38-.39-.74-.59-.26.23-.39.59-.39,1.08,0,3.8.11,9.5.32,17.1.21,7.6.32,13.3.32,17.1,0,1.15-.44,1.72-1.33,1.72h-17c-.95,0-1.43-.51-1.43-1.52,0-3.54.17-8.88.52-16.02.34-7.14.52-12.5.52-16.07,0-3.77-.16-9.4-.47-16.91-.31-7.5-.47-13.12-.47-16.86,0-.72.64-1.08,1.92-1.08,1.9,0,4.24-.13,7.03-.39.66-.07,1.95-.28,3.88-.64,1.64-.29,2.93-.44,3.88-.44.39,0,1,.56,1.82,1.67l18.33,25.12c1.64,2.26,4.11,5.57,7.42,9.93.82,1.02,1.52,1.52,2.11,1.52.42,0,.64-1.28.64-3.83,0-3.44-.19-8.62-.57-15.53-.38-6.91-.57-12.11-.57-15.58,0-1.21.34-1.82,1.03-1.82,1.97,0,4.93-.08,8.9-.25s6.93-.25,8.9-.25c.62,0,.93.51.93,1.52Z"/>
        <path class="cls-1" d="M164.76,110.25c0,3.31-1.07,5.19-3.2,5.65-.36.07-3.75.43-10.17,1.08-3.87.43-9.63.93-17.3,1.52.46,2.13,1.85,3.75,4.18,4.87,1.9.92,4.06,1.38,6.49,1.38,2.92,0,5.85-.79,8.8-2.36,1.25-.79,2.49-1.57,3.74-2.36.69.33,1.84,2,3.46,5.01s2.43,4.93,2.43,5.75c0,.23-.25.61-.74,1.13-4,4.29-10.21,6.44-18.63,6.44-7.8,0-14.09-2.28-18.87-6.83-4.92-4.62-7.37-10.8-7.37-18.53s2.2-13.71,6.59-18.53c4.52-4.98,10.52-7.47,17.99-7.47,6.29,0,11.63,2.29,16.02,6.88,4.39,4.59,6.59,10.04,6.59,16.37ZM147.56,107.25c0-2.03-.72-3.82-2.16-5.36-1.44-1.54-3.16-2.31-5.16-2.31s-3.77.87-5.11,2.61c-1.25,1.61-1.87,3.49-1.87,5.65,0,.88.46,1.33,1.38,1.33,2.42,0,6.19-.38,11.3-1.13,1.08-.16,1.62-.43,1.62-.79Z"/>
        <path class="cls-1" d="M213.52,135.61c0,.72-.54,1.16-1.62,1.33-1.93.26-3.98.39-6.14.39-2.29,0-4.21-.13-5.75-.39-.39-.07-1-.39-1.82-.98-1.61-2.29-4.05-5.72-7.32-10.27-.82.98-3.51,4.36-8.06,10.12-.43.59-1.03.97-1.82,1.13-1.15.26-2.95.39-5.41.39-5.18,0-7.77-.57-7.77-1.72,0-.95.02-2.4.05-4.35.03-1.95.05-3.42.05-4.4,0-.56.29-1.16.88-1.82,2.56-2.65,6.32-6.67,11.3-12.04-2.29-2.2-4.57-4.39-6.83-6.59-3.64-3.57-5.46-5.68-5.46-6.34v-8.65c0-.85.57-1.28,1.72-1.28,1.31,0,3.27.05,5.87.15,2.6.1,4.56.15,5.87.15.66,0,1.26.36,1.82,1.08,1.8,2.39,4.33,5.42,7.57,9.09,2.95-3.57,5.29-6.6,7.03-9.09.49-.66,1.1-.98,1.82-.98,1.38,0,3.42-.07,6.14-.2s4.77-.2,6.14-.2c1.15,0,1.72.43,1.72,1.28v8.65c0,.62-.28,1.2-.83,1.72-2.49,2.52-6.18,6.36-11.06,11.5,2.49,2.59,6.18,6.54,11.06,11.84.56.62.83,1.23.83,1.82v8.65Z"/>
        <path class="cls-1" d="M252.25,122.54c0,.98-.12,2.47-.37,4.47-.25,2-.37,3.46-.37,4.4s-.1,1.53-.29,1.79c-.2.26-.74.64-1.62,1.13-4.23,2.33-8.91,3.49-14.06,3.49-9.47,0-14.2-3.62-14.2-10.86,0-2.16.08-5.41.25-9.76.16-4.34.25-7.59.25-9.76,0-1.44-.83-2.16-2.51-2.16h-.64c-.29.03-.51.05-.64.05-1.25,0-1.87-.44-1.87-1.33,0-.52.04-1.33.12-2.41s.12-1.88.12-2.41c0-.69-.04-1.74-.12-3.15-.08-1.41-.12-2.46-.12-3.15s1.05-1.02,3.14-1.08c1.18-.03,1.82-.36,1.92-.98.2-1.25.26-3.21.2-5.9-.13-4.23-.2-6.24-.2-6.04,0-3.8.36-5.7,1.08-5.7.88,0,2.15.2,3.79.59,1.87.43,3.16.67,3.88.74,1.67.23,4.19.54,7.57.93.82.07,1.23.34,1.23.83,0,1.31-.11,3.29-.32,5.95-.21,2.65-.32,4.65-.32,6,0,1.61.47,2.41,1.42,2.41,1.15,0,2.88-.05,5.21-.15,2.33-.1,4.08-.15,5.26-.15.72,0,1.08.25,1.08.74,0,.75-.08,1.88-.25,3.39-.17,1.51-.25,2.64-.25,3.39s.02,1.93.05,3.44c.03,1.51.05,2.65.05,3.44,0,.69-.48,1.03-1.43,1.03-.66,0-1.75-.03-3.29-.07s-2.64-.07-3.29-.07h-3.69c-.49,0-.74.72-.74,2.16v3.49c.03,1.57.05,2.74.05,3.49,0,2.75.31,4.65.93,5.7.88,1.41,2.62,2.11,5.21,2.11.82,0,1.99-.19,3.51-.56,1.52-.38,2.6-.57,3.22-.57.69,0,1.03.36,1.03,1.08Z"/>
      </g>
    </g>
  </g>
</svg>