<?xml version="1.0" encoding="UTF-8"?>
<svg id="Layer_2" data-name="Layer 2" xmlns="http://www.w3.org/2000/svg" xmlns:xlink="http://www.w3.org/1999/xlink" viewBox="0 0 333 233">
  <defs>
    <style>
      .cls-1 {
        fill: #004990;
        stroke: #fff;
        stroke-width: 5px;
      }

      .cls-1, .cls-2 {
        stroke-miterlimit: 10;
      }

      .cls-2 {
        fill: url(#radial-gradient);
        filter: url(#drop-shadow-1);
        stroke: #cececc;
        stroke-width: 12px;
      }
    </style>
    <radialGradient id="radial-gradient" cx="637.97" cy="103.64" fx="637.97" fy="103.64" r="201.58" gradientTransform="translate(-282.74 66.72) rotate(-1.54) scale(.68 .47) skewX(-.57)" gradientUnits="userSpaceOnUse">
      <stop offset="0" stop-color="#213a74"/>
      <stop offset=".97" stop-color="#142235"/>
    </radialGradient>
    <filter id="drop-shadow-1" x="0" y="0" width="333" height="233" filterUnits="userSpaceOnUse">
      <feOffset dx="15" dy="15"/>
      <feGaussianBlur result="blur" stdDeviation="8"/>
      <feFlood flood-color="#030e1c" flood-opacity=".75"/>
      <feComposite in2="blur" operator="in"/>
      <feComposite in="SourceGraphic"/>
    </filter>
  </defs>
  <g id="Layer_2-2" data-name="Layer 2">
    <g>
      <rect class="cls-2" x="13.35" y="15.49" width="274.91" height="176.29" rx="88.15" ry="88.15"/>
      <g>
        <path class="cls-1" d="M147.36,107.56c0,10.22-3.26,18.79-9.78,25.7-6.65,7.01-15.07,10.52-25.26,10.52s-18.53-3.54-25.21-10.62c-6.55-6.91-9.83-15.45-9.83-25.61s3.28-18.76,9.83-25.7c6.68-7.11,15.09-10.67,25.21-10.67s18.45,3.56,25.16,10.67c6.59,7.01,9.88,15.58,9.88,25.7ZM128.74,107.47c0-4.91-1.49-9.09-4.47-12.53-3.11-3.6-7.09-5.41-11.94-5.41s-8.54,1.87-11.75,5.6c-3.11,3.6-4.67,7.75-4.67,12.43,0,5.01,1.46,9.19,4.37,12.53,3.08,3.51,7.09,5.26,12.04,5.26,4.62,0,8.55-1.85,11.8-5.55,3.08-3.54,4.62-7.65,4.62-12.34Z"/>
        <path class="cls-1" d="M215.19,139.22c0,1.41-.61,2.33-1.82,2.75-.98.33-3.57.49-7.77.49s-6.98-.16-8.85-.49c-.88-.16-1.47-.34-1.74-.52-.28-.18-.63-.65-1.06-1.4-2.39-4.39-4.77-8.78-7.13-13.17-3.9-7.08-6.23-10.98-6.98-11.7-3.54,1.28-5.31,2.2-5.31,2.75,0,2.46.1,6.17.29,11.13.2,4.96.29,8.69.29,11.18,0,1.02-.44,1.59-1.33,1.72-1.7.26-4.78.39-9.24.39s-7.08-.13-8.45-.39c-.95-.2-1.43-.7-1.43-1.52,0-3.54.17-8.88.52-16.02.34-7.14.52-12.5.52-16.07,0-3.8-.16-9.51-.49-17.13-.33-7.62-.49-13.33-.49-17.13,0-.72.34-1.08,1.03-1.08,1.02,0,2.55.05,4.6.15,2.05.1,3.58.15,4.59.15s2.61-.05,4.67-.15c2.06-.1,3.6-.15,4.62-.15.56,0,.84.29.84.88,0,2.42-.12,6.09-.37,10.98-.25,4.9-.37,8.56-.37,10.98,0,2.82.77,4.23,2.31,4.23,3.9,0,6.93-1.06,9.09-3.19,1.6-1.57,3.23-4.44,4.87-8.6,1.05-3.18,2.77-7.86,5.16-14.06.36-.82,1.1-1.23,2.21-1.23.85,0,2.14.05,3.86.15,1.72.1,3.01.15,3.86.15s2.2-.03,3.96-.1c1.75-.07,3.05-.1,3.91-.1.79,0,1.18.38,1.18,1.13,0,1.08-.69,3.72-2.06,7.91-4.06,12.38-8.73,20.12-14.01,23.2-1.08.62-1.62,1.13-1.62,1.52,0-.03,3.02,4.88,9.07,14.75,6.04,9.86,9.07,15.73,9.07,17.59Z"/>
      </g>
    </g>
  </g>
</svg>