<?xml version="1.0" encoding="UTF-8"?>
<svg id="Layer_2" data-name="Layer 2" xmlns="http://www.w3.org/2000/svg" xmlns:xlink="http://www.w3.org/1999/xlink" viewBox="0 0 261.68 363.24">
  <defs>
    <style>
      .cls-1 {
        stroke: #231f20;
        stroke-width: 4px;
      }

      .cls-1, .cls-2, .cls-3, .cls-4 {
        stroke-miterlimit: 10;
      }

      .cls-1, .cls-3, .cls-4 {
        fill: none;
      }

      .cls-5 {
        fill: #f1f2f2;
      }

      .cls-2 {
        fill: url(#radial-gradient);
      }

      .cls-2, .cls-3, .cls-4 {
        stroke: #e6e7e8;
      }

      .cls-6 {
        fill: #edf7f6;
      }

      .cls-7 {
        fill: #e6e7e8;
      }

      .cls-3 {
        stroke-width: 5px;
      }

      .cls-8 {
        fill: #f8991d;
      }

      .cls-4 {
        stroke-width: 13px;
      }
    </style>
    <radialGradient id="radial-gradient" cx="131.62" cy="182.45" fx="131.62" fy="182.45" r="246.77" gradientTransform="translate(0 -1.78)" gradientUnits="userSpaceOnUse">
      <stop offset="0" stop-color="#eb8c2d"/>
      <stop offset=".82" stop-color="#9e4523"/>
    </radialGradient>
  </defs>
  <g id="Layer_5" data-name="Layer 5">
    <rect class="cls-6" x="4.2" y="4.27" width="253.29" height="356.75" rx="15" ry="15"/>
    <rect class="cls-2" x="8.98" y="8.02" width="245.27" height="347.09" rx="15" ry="15"/>
    <polygon class="cls-8" points="77.69 181.62 87.14 149.15 118.43 128.66 145.53 127.46 179.88 151.5 183.99 179.63 178.75 213.44 158.6 233.82 126.2 237.58 95.38 223.3 79.78 191.94 77.69 181.62"/>
    <polygon class="cls-8" points="34.49 152.72 64.85 152.72 63.21 163.57 57.11 168.93 56.5 187.19 57.04 223.33 51.17 227.25 43.97 227.25 40.94 220.36 43.78 168.83 37.36 164.53 34.97 157.24 34.49 152.72"/>
    <polygon class="cls-8" points="215 126.57 205.21 132.35 199.74 143.54 199.17 158.37 204.82 170.58 208.76 175.85 207.08 208.05 208.12 223.73 213.93 227.25 220.39 226.09 222.96 221.34 221.19 173.94 228.83 164.83 231.29 156.51 230.21 143.77 226.85 135.77 220.9 129.5 215 126.57"/>
    <circle class="cls-7" cx="132.71" cy="181.62" r="39.72"/>
    <path class="cls-3" d="M43.84,169.16l-2.02,52.18s0,5.91,7.33,5.91,8.84-5.91,8.84-5.91l-2.27-52.18s9.6-.02,9.6-16.44h-30.82s.25,15.68,9.35,16.44Z"/>
    <circle class="cls-4" cx="132.71" cy="181.62" r="55.96"/>
    <path class="cls-3" d="M208.81,173.94l-1.26,47.4s-.25,5.91,7.83,5.91,7.58-5.91,7.58-5.91l-1.77-47.4s10.11-5.56,10.11-21.22-9.09-25.26-16.67-25.26-15.92,9.35-15.92,25.26,10.11,21.22,10.11,21.22Z"/>
    <rect class="cls-7" x="31.94" y="124.58" width="6.06" height="29.75" rx="2.4" ry="2.4"/>
    <rect class="cls-7" x="46.87" y="124.21" width="6.06" height="29.75" rx="2.4" ry="2.4"/>
    <rect class="cls-7" x="61.81" y="124.58" width="6.06" height="29.75" rx="2.4" ry="2.4"/>
    <g>
      <path class="cls-5" d="M83.45,62.42l-4.91.31c-.07-2.82-1.17-4.23-3.3-4.23-2.45,0-3.67,2.17-3.67,6.52,0,2.51.33,4.21,1,5.1s1.59,1.34,2.79,1.34c1.94,0,3.12-1.26,3.55-3.78l4.54.28c-.29,2.39-1.18,4.21-2.67,5.46s-3.31,1.87-5.47,1.87c-2.65,0-4.8-.91-6.45-2.74-1.65-1.83-2.48-4.35-2.48-7.57,0-3.02.8-5.49,2.4-7.41s3.79-2.89,6.56-2.89c4.8,0,7.51,2.58,8.12,7.75Z"/>
      <path class="cls-5" d="M95.77,54.98l6.26,20h-5.03l-1.23-4.12h-6.46l-1.25,4.12h-4.11l6.41-20h5.42ZM90.42,67.17h4.24l-2.1-7.02-2.14,7.02Z"/>
      <path class="cls-5" d="M115.33,54.98v3.96h-4.95v16.04h-4.75v-16.04h-4.98v-3.96h14.68Z"/>
      <path class="cls-5" d="M131.61,58.79h-9.52v4.1h7.49v3.76h-7.49v4.37h9.52v3.96h-14.28v-20h14.28v3.81Z"/>
      <path class="cls-5" d="M139.14,67.05v7.92h-4.72v-20h8.79c1.62,0,2.92.19,3.9.56.98.38,1.79,1.07,2.44,2.07.64,1,.97,2.12.97,3.35,0,2.4-1.16,4.12-3.47,5.17l3.69,8.84h-5.18l-3.07-7.92h-3.36ZM139.14,58.54v5.1h2.87c.94,0,1.62-.07,2.04-.2.42-.13.8-.42,1.13-.88s.5-.97.5-1.56-.17-1.05-.5-1.49-.69-.71-1.08-.81-1.12-.15-2.2-.15h-2.77Z"/>
      <path class="cls-5" d="M158.82,54.98v20h-4.67v-20h4.67Z"/>
      <path class="cls-5" d="M178.21,54.98v20h-4l-7.83-13.51c0,.34.02.57.03.67.04.34.06.63.06.86v11.97h-3.65v-20h5.05l6.8,11.79c-.06-.59-.09-1.03-.09-1.33v-10.46h3.62Z"/>
      <path class="cls-5" d="M197.8,64.28v10.69h-2.14c-.15-.75-.38-1.52-.67-2.3-1.43,1.74-3.24,2.61-5.45,2.61-2.61,0-4.64-.93-6.09-2.8-1.45-1.87-2.18-4.28-2.18-7.24,0-3.18.77-5.74,2.32-7.68,1.55-1.93,3.65-2.9,6.31-2.9,2.23,0,4.02.62,5.39,1.88s2.2,2.92,2.5,5l-4.45.59c-.36-2.42-1.51-3.63-3.44-3.63-1.27,0-2.23.57-2.88,1.72-.65,1.15-.97,2.79-.97,4.91s.35,3.62,1.05,4.7,1.7,1.63,3,1.63c.84,0,1.59-.27,2.25-.82.66-.55.99-1.42.99-2.62h-3.76v-3.74h8.22Z"/>
    </g>
    <path class="cls-1" d="M244.68,361.24H17c-8.28,0-15-6.72-15-12V20C2,8.72,8.72,2,17,2h227.68c8.28,0,15,6.72,15,15v329.24c0,8.28-6.72,15-15,15Z"/>
  </g>
</svg>