<?xml version="1.0" encoding="UTF-8"?>
<svg id="Layer_2" data-name="Layer 2" xmlns="http://www.w3.org/2000/svg" xmlns:xlink="http://www.w3.org/1999/xlink" viewBox="0 0 261.68 363.24">
  <defs>
    <style>
      .cls-1 {
        fill: none;
        stroke: #231f20;
        stroke-width: 4px;
      }

      .cls-1, .cls-2 {
        stroke-miterlimit: 10;
      }

      .cls-3 {
        fill: #f1f2f2;
      }

      .cls-2 {
        fill: url(#radial-gradient);
        stroke: #e6e7e8;
      }

      .cls-4 {
        fill: #edf7f6;
      }

      .cls-5 {
        fill: #a97c50;
      }
    </style>
    <radialGradient id="radial-gradient" cx="130.75" cy="182.45" fx="130.75" fy="182.45" r="246.77" gradientUnits="userSpaceOnUse">
      <stop offset="0" stop-color="#95765b"/>
      <stop offset=".82" stop-color="#6c553b"/>
    </radialGradient>
  </defs>
  <g id="Layer_3" data-name="Layer 3">
    <rect class="cls-4" x="4.1" y="4.12" width="253.29" height="355" rx="15" ry="15"/>
    <rect class="cls-2" x="8.11" y="9.75" width="245.27" height="345.39" rx="15" ry="15"/>
    <rect class="cls-4" x="77.03" y="141.65" width="106.67" height="140.78" rx="6" ry="6"/>
    <rect class="cls-5" x="115.23" y="257.16" width="30.27" height="20.27" rx="5" ry="5" transform="translate(397.67 136.93) rotate(90)"/>
    <rect class="cls-5" x="117.2" y="154.54" width="26.34" height="16.67" rx="5" ry="5"/>
    <rect class="cls-4" x="64.24" y="276.56" width="133.01" height="7.2" rx="3.6" ry="3.6"/>
    <rect class="cls-5" x="117.2" y="178.98" width="26.34" height="16.67" rx="5" ry="5"/>
    <rect class="cls-5" x="117.2" y="203.42" width="26.34" height="16.67" rx="5" ry="5"/>
    <rect class="cls-5" x="117.2" y="227.77" width="26.34" height="16.67" rx="5" ry="5"/>
    <rect class="cls-5" x="83.66" y="154.54" width="26.34" height="16.67" rx="5" ry="5"/>
    <rect class="cls-5" x="83.66" y="178.98" width="26.34" height="16.67" rx="5" ry="5"/>
    <rect class="cls-5" x="83.66" y="203.42" width="26.34" height="16.67" rx="5" ry="5"/>
    <rect class="cls-5" x="83.66" y="227.77" width="26.34" height="16.67" rx="5" ry="5"/>
    <rect class="cls-5" x="150.36" y="154.54" width="26.34" height="16.67" rx="5" ry="5"/>
    <rect class="cls-5" x="150.36" y="178.98" width="26.34" height="16.67" rx="5" ry="5"/>
    <rect class="cls-5" x="150.36" y="203.42" width="26.34" height="16.67" rx="5" ry="5"/>
    <rect class="cls-5" x="150.36" y="227.77" width="26.34" height="16.67" rx="5" ry="5"/>
    <rect class="cls-5" x="83.66" y="252.16" width="26.34" height="16.67" rx="5" ry="5"/>
    <rect class="cls-5" x="150.36" y="252.16" width="26.34" height="16.67" rx="5" ry="5"/>
    <polygon class="cls-4" points="130.84 94.95 126.96 104.71 116.25 104.71 124.87 112.57 121.94 122.14 130.84 116.45 139.56 122.14 136.62 112.47 145.43 104.71 134.35 104.8 130.84 94.95"/>
    <polygon class="cls-4" points="98.73 112.09 94.84 121.85 84.14 121.85 92.76 129.72 89.82 139.28 98.73 133.6 107.44 139.28 104.51 129.62 113.32 121.85 102.23 121.95 98.73 112.09"/>
    <polygon class="cls-4" points="163.53 112.09 159.64 121.85 148.94 121.85 157.56 129.72 154.62 139.28 163.53 133.6 172.24 139.28 169.31 129.62 178.12 121.85 167.03 121.95 163.53 112.09"/>
    <g>
      <path class="cls-3" d="M104.43,29.1l-2.89,2.86c-1.83-1.93-3.96-2.9-6.39-2.9-2.12,0-3.9.7-5.33,2.11-1.43,1.41-2.15,3.12-2.15,5.13s.74,3.84,2.23,5.29c1.49,1.45,3.32,2.17,5.5,2.17,1.42,0,2.61-.3,3.59-.89s1.76-1.53,2.35-2.8h-6.24v-3.85h10.84l.03.91c0,1.88-.49,3.67-1.46,5.36s-2.24,2.98-3.79,3.87-3.37,1.33-5.46,1.33c-2.24,0-4.23-.49-5.98-1.46-1.75-.97-3.14-2.36-4.16-4.15-1.02-1.8-1.53-3.74-1.53-5.82,0-2.85.94-5.33,2.83-7.44,2.24-2.51,5.15-3.76,8.73-3.76,1.88,0,3.63.35,5.26,1.04,1.38.59,2.72,1.59,4.04,3.02Z"/>
      <path class="cls-3" d="M109.58,25.59h4.12v13.93c0,1.2.1,2.05.32,2.55.21.5.56.9,1.04,1.19.48.3,1.07.45,1.75.45.72,0,1.34-.17,1.87-.5.52-.33.88-.75,1.08-1.27.2-.51.3-1.49.3-2.93v-13.42h4.12v12.85c0,2.17-.12,3.67-.37,4.51s-.71,1.65-1.4,2.43c-.69.78-1.48,1.36-2.38,1.74s-1.94.56-3.13.56c-1.56,0-2.92-.36-4.08-1.08-1.16-.72-1.99-1.62-2.48-2.7s-.75-2.9-.75-5.47v-12.85Z"/>
      <path class="cls-3" d="M128.95,25.59h11.76v4.01h-7.69v3.9h7.69v3.94h-7.69v5.67h7.69v4.03h-11.76v-21.55Z"/>
      <path class="cls-3" d="M155.84,28.52l-3.04,2.68c-1.07-1.48-2.15-2.23-3.26-2.23-.54,0-.98.14-1.32.43s-.51.61-.51.97.12.7.37,1.03c.33.43,1.33,1.35,3.01,2.77,1.57,1.31,2.51,2.13,2.85,2.48.83.84,1.42,1.64,1.77,2.41.35.77.52,1.6.52,2.51,0,1.77-.61,3.23-1.83,4.38s-2.82,1.73-4.78,1.73c-1.54,0-2.87-.38-4.01-1.13s-2.11-1.93-2.93-3.54l3.45-2.08c1.04,1.9,2.23,2.86,3.58,2.86.7,0,1.3-.21,1.78-.62s.72-.88.72-1.42c0-.49-.18-.98-.54-1.46s-1.16-1.24-2.39-2.24c-2.35-1.91-3.86-3.39-4.55-4.43-.69-1.04-1.03-2.08-1.03-3.11,0-1.49.57-2.78,1.71-3.85,1.14-1.07,2.54-1.6,4.22-1.6,1.08,0,2.1.25,3.07.75.97.5,2.03,1.41,3.16,2.72Z"/>
      <path class="cls-3" d="M158.01,25.59h11.91v4.04h-3.93v17.5h-4.16v-17.5h-3.82v-4.04Z"/>
      <path class="cls-3" d="M19.18,61.59h4.16l8.29,21.55h-4.26l-1.69-4.44h-8.79l-1.75,4.44h-4.26l8.31-21.55ZM21.28,67.3l-2.89,7.4h5.76l-2.87-7.4Z"/>
      <path class="cls-3" d="M53.01,65.37l-2.87,2.73c-1.95-2.06-4.15-3.09-6.59-3.09-2.06,0-3.79.7-5.2,2.11-1.41,1.41-2.12,3.14-2.12,5.21,0,1.44.31,2.71.94,3.83s1.51,1.99,2.65,2.62,2.41.95,3.8.95c1.19,0,2.28-.22,3.26-.67s2.07-1.25,3.25-2.43l2.78,2.9c-1.59,1.55-3.1,2.63-4.51,3.23-1.42.6-3.03.9-4.85.9-3.35,0-6.09-1.06-8.23-3.19s-3.2-4.85-3.2-8.17c0-2.15.49-4.06,1.46-5.73.97-1.67,2.36-3.01,4.17-4.03s3.76-1.52,5.85-1.52c1.78,0,3.49.38,5.13,1.13,1.65.75,3.06,1.82,4.26,3.2Z"/>
      <path class="cls-3" d="M74.81,65.37l-2.87,2.73c-1.95-2.06-4.15-3.09-6.59-3.09-2.06,0-3.79.7-5.2,2.11-1.41,1.41-2.12,3.14-2.12,5.21,0,1.44.31,2.71.94,3.83s1.51,1.99,2.65,2.62,2.41.95,3.8.95c1.19,0,2.28-.22,3.26-.67s2.07-1.25,3.25-2.43l2.78,2.9c-1.59,1.55-3.1,2.63-4.51,3.23-1.42.6-3.03.9-4.85.9-3.35,0-6.09-1.06-8.23-3.19s-3.2-4.85-3.2-8.17c0-2.15.49-4.06,1.46-5.73.97-1.67,2.36-3.01,4.17-4.03s3.76-1.52,5.85-1.52c1.78,0,3.49.38,5.13,1.13,1.65.75,3.06,1.82,4.26,3.2Z"/>
      <path class="cls-3" d="M86.99,61.04c3.05,0,5.67,1.1,7.86,3.31,2.19,2.21,3.29,4.9,3.29,8.07s-1.08,5.81-3.25,7.98c-2.16,2.18-4.79,3.27-7.88,3.27s-5.92-1.12-8.06-3.35c-2.14-2.24-3.21-4.89-3.21-7.97,0-2.06.5-3.96,1.5-5.68s2.37-3.1,4.11-4.11,3.62-1.52,5.64-1.52ZM86.94,65.06c-1.99,0-3.67.69-5.03,2.08s-2.04,3.15-2.04,5.29c0,2.38.86,4.27,2.57,5.65,1.33,1.08,2.85,1.63,4.58,1.63,1.94,0,3.6-.7,4.97-2.11,1.37-1.41,2.05-3.14,2.05-5.2s-.69-3.79-2.07-5.21c-1.38-1.42-3.06-2.13-5.03-2.13Z"/>
      <path class="cls-3" d="M102.51,61.59h4l5,15.03,5.04-15.03h3.99l3.61,21.55h-3.97l-2.31-13.61-4.58,13.61h-3.61l-4.54-13.61-2.37,13.61h-4l3.73-21.55Z"/>
      <path class="cls-3" d="M136,61.04c3.05,0,5.67,1.1,7.86,3.31,2.19,2.21,3.29,4.9,3.29,8.07s-1.08,5.81-3.25,7.98c-2.16,2.18-4.79,3.27-7.88,3.27s-5.92-1.12-8.06-3.35c-2.14-2.24-3.21-4.89-3.21-7.97,0-2.06.5-3.96,1.5-5.68s2.37-3.1,4.11-4.11,3.62-1.52,5.64-1.52ZM135.95,65.06c-1.99,0-3.67.69-5.03,2.08s-2.04,3.15-2.04,5.29c0,2.38.86,4.27,2.57,5.65,1.33,1.08,2.85,1.63,4.58,1.63,1.94,0,3.6-.7,4.97-2.11,1.37-1.41,2.05-3.14,2.05-5.2s-.69-3.79-2.07-5.21c-1.38-1.42-3.06-2.13-5.03-2.13Z"/>
      <path class="cls-3" d="M149.44,61.59h4.86c3.13,0,5.46.39,6.98,1.16,1.52.78,2.78,2.04,3.76,3.79s1.48,3.79,1.48,6.12c0,1.66-.28,3.19-.83,4.58-.55,1.39-1.31,2.55-2.28,3.46s-2.02,1.55-3.15,1.9-3.09.53-5.88.53h-4.93v-21.55ZM153.52,65.54v13.59h1.9c1.88,0,3.23-.21,4.08-.65s1.54-1.15,2.07-2.17.81-2.27.81-3.75c0-2.29-.64-4.06-1.92-5.32-1.15-1.13-3-1.7-5.55-1.7h-1.39Z"/>
      <path class="cls-3" d="M175.42,61.59h4.16l8.29,21.55h-4.26l-1.69-4.44h-8.79l-1.75,4.44h-4.26l8.31-21.55ZM177.52,67.3l-2.89,7.4h5.76l-2.87-7.4Z"/>
      <path class="cls-3" d="M187.32,61.59h11.91v4.04h-3.93v17.5h-4.16v-17.5h-3.82v-4.04Z"/>
      <path class="cls-3" d="M200.16,61.59h4.07v21.55h-4.07v-21.55Z"/>
      <path class="cls-3" d="M217.43,61.04c3.05,0,5.67,1.1,7.86,3.31,2.19,2.21,3.29,4.9,3.29,8.07s-1.08,5.81-3.25,7.98c-2.16,2.18-4.79,3.27-7.88,3.27s-5.92-1.12-8.06-3.35c-2.14-2.24-3.21-4.89-3.21-7.97,0-2.06.5-3.96,1.5-5.68s2.37-3.1,4.11-4.11,3.62-1.52,5.64-1.52ZM217.39,65.06c-1.99,0-3.67.69-5.03,2.08s-2.04,3.15-2.04,5.29c0,2.38.86,4.27,2.57,5.65,1.33,1.08,2.85,1.63,4.58,1.63,1.94,0,3.6-.7,4.97-2.11,1.37-1.41,2.05-3.14,2.05-5.2s-.69-3.79-2.07-5.21c-1.38-1.42-3.06-2.13-5.03-2.13Z"/>
      <path class="cls-3" d="M230.88,61.59h3.93l9.22,14.18v-14.18h4.1v21.55h-3.95l-9.21-14.14v14.14h-4.1v-21.55Z"/>
    </g>
  </g>
  <g id="Layer_5" data-name="Layer 5">
    <rect class="cls-1" x="2" y="2" width="257.68" height="359.24" rx="14.99" ry="14.99"/>
  </g>
</svg>