<?xml version="1.0" encoding="UTF-8"?>
<svg id="Layer_2" data-name="Layer 2" xmlns="http://www.w3.org/2000/svg" xmlns:xlink="http://www.w3.org/1999/xlink" viewBox="0 0 261.68 363.24">
  <defs>
    <style>
      .cls-1 {
        stroke: #231f20;
      }

      .cls-1, .cls-2 {
        fill: none;
        stroke-width: 4px;
      }

      .cls-1, .cls-2, .cls-3 {
        stroke-miterlimit: 10;
      }

      .cls-2 {
        stroke: #ed1c24;
      }

      .cls-3 {
        fill: url(#radial-gradient);
        stroke: #e6e7e8;
      }

      .cls-4 {
        fill: #cb2026;
      }

      .cls-5 {
        fill: #edf7f6;
      }

      .cls-6 {
        fill: #e6e7e8;
      }
    </style>
    <radialGradient id="radial-gradient" cx="130.47" cy="182.04" fx="130.47" fy="182.04" r="246.77" gradientUnits="userSpaceOnUse">
      <stop offset="0" stop-color="#cd2027"/>
      <stop offset=".82" stop-color="#9e1d20"/>
    </radialGradient>
  </defs>
  <g id="Layer_4" data-name="Layer 4">
    <rect class="cls-1" x="2" y="2" width="257.68" height="359.24" rx="14.99" ry="14.99"/>
    <rect class="cls-5" x="3.83" y="3.71" width="253.29" height="355" rx="15" ry="15"/>
    <rect class="cls-3" x="7.84" y="9.34" width="245.27" height="345.39" rx="15" ry="15"/>
    <rect class="cls-6" x="62.26" y="141.97" width="136.42" height="110.15" rx="11" ry="11"/>
    <rect class="cls-6" x="80.14" y="106.17" width="30.14" height="48.51" rx="15.07" ry="15.07"/>
    <rect class="cls-6" x="150.37" y="106.17" width="30.14" height="48.51" rx="15.07" ry="15.07"/>
    <rect class="cls-4" x="89.55" y="115.19" width="9.85" height="39.92" rx="4.93" ry="4.93"/>
    <rect class="cls-4" x="127.65" y="106.27" width="4.38" height="118.74" rx="2.19" ry="2.19" transform="translate(295.48 35.79) rotate(90)"/>
    <rect class="cls-4" x="160.51" y="115.19" width="9.85" height="39.92" rx="4.93" ry="4.93"/>
    <rect class="cls-2" x="72.62" y="177.59" width="114.44" height="61.14" rx="2" ry="2"/>
    <polygon class="cls-4" points="129.84 186.18 124.28 201.72 107.74 201.72 120.12 212.33 115.57 229.13 129.8 219.4 143.74 229.13 139.06 212.45 152.07 201.72 135.15 201.72 129.84 186.18"/>
  </g>
</svg>