<?xml version="1.0" encoding="UTF-8"?>
<svg id="Layer_2" data-name="Layer 2" xmlns="http://www.w3.org/2000/svg" xmlns:xlink="http://www.w3.org/1999/xlink" viewBox="0 0 261.68 364.24">
  <defs>
    <style>
      .cls-1 {
        fill: url(#radial-gradient);
        stroke-width: 5px;
      }

      .cls-1, .cls-2, .cls-3, .cls-4 {
        stroke-miterlimit: 10;
      }

      .cls-1, .cls-4 {
        stroke: #e6e7e8;
      }

      .cls-2 {
        stroke: #231f20;
      }

      .cls-2, .cls-3 {
        stroke-width: 4px;
      }

      .cls-2, .cls-3, .cls-4 {
        fill: none;
      }

      .cls-5 {
        fill: #f1f2f2;
      }

      .cls-3 {
        stroke: #349a46;
      }

      .cls-4 {
        stroke-width: 7px;
      }

      .cls-6 {
        fill: #e6e7e8;
      }

      .cls-7 {
        fill: #349a46;
      }
    </style>
    <radialGradient id="radial-gradient" cx="149.98" cy="191.68" fx="149.98" fy="191.68" r="259.85" gradientTransform="translate(-14.39 -3.58) scale(.97)" gradientUnits="userSpaceOnUse">
      <stop offset="0" stop-color="#349a46"/>
      <stop offset=".82" stop-color="#356732"/>
    </radialGradient>
  </defs>
  <g id="Layer_8" data-name="Layer 8">
    <path class="cls-1" d="M21.21,5.66h217.27c9.38,0,17,7.62,17,17v318.88c0,9.38-7.62,17-17,17H21.21c-8.28,0-15-6.72-15-15V20.66c0-8.28,6.72-15,15-15Z"/>
    <polygon class="cls-7" points="45.95 220.27 74.92 279.53 199.86 221.94 183.47 190.48 45.95 220.27"/>
    <rect class="cls-4" x="53.33" y="186.84" width="139.83" height="68.21" rx="3" ry="3" transform="translate(-81.17 71.88) rotate(-24.74)"/>
    <polygon class="cls-7" points="52.99 201.59 81.94 260.85 205.35 203.97 188.98 172.51 52.99 201.59"/>
    <rect class="cls-4" x="59.46" y="170.25" width="139.83" height="68.21" rx="3" ry="3" transform="translate(-73.66 72.92) rotate(-24.74)"/>
    <polyline class="cls-7" points="58.74 186 86.42 246.06 211.69 188.32 183.3 126.72"/>
    <circle class="cls-6" cx="135.31" cy="187.7" r="23.64"/>
    <rect class="cls-4" x="65.77" y="153.16" width="139.83" height="68.21" rx="3" ry="3" transform="translate(-65.93 73.99) rotate(-24.74)"/>
    <path class="cls-3" d="M139.15,179.62s-2.37-5.37-7.71-2.92c-.21.09-.4.19-.6.29-4.77,2.47-5.2,6.14-4.21,8.29s3.52,5.78,7.61,3.89,8.85-3.03,10.88,1.36.59,6.93-3.11,8.63c-3.7,1.71-7.04,2.83-9.06-1.56"/>
    <line class="cls-3" x1="128.77" y1="172.5" x2="130.84" y2="176.99"/>
    <line class="cls-3" x1="116.9" y1="213.48" x2="114.94" y2="209.22"/>
    <path class="cls-2" d="M244.7,362.24H16.99c-8.28,0-14.99-6.71-14.99-14.99V16.99c0-8.28,6.71-14.99,14.99-14.99l227.71,1c8.28,0,14.99,6.71,14.99,14.99v329.27c0,8.28-6.71,14.99-14.99,14.99Z"/>
    <g>
      <path class="cls-5" d="M58.11,59.37h-9.36v4.48h7.4v3.74h-7.4v7.82h-4.86v-20h14.22v3.96Z"/>
      <path class="cls-5" d="M76.28,55.42v12.45c0,2.01-.23,3.51-.69,4.49s-1.31,1.79-2.54,2.42c-1.24.63-2.82.94-4.74.94s-3.46-.28-4.59-.85-1.99-1.37-2.56-2.42-.85-2.57-.85-4.58v-12.45h5.08v12.45c0,1.07.09,1.87.27,2.37.18.51.54.91,1.08,1.21.54.3,1.21.45,2,.45.88,0,1.59-.15,2.15-.44s.92-.68,1.1-1.16c.18-.48.27-1.29.27-2.42v-12.45h4.01Z"/>
      <path class="cls-5" d="M95.38,55.42v20h-4l-7.83-13.51c0,.34.02.57.03.67.04.34.06.63.06.86v11.97h-3.65v-20h5.05l6.8,11.79c-.06-.59-.09-1.03-.09-1.33v-10.46h3.62Z"/>
      <path class="cls-5" d="M99.39,55.42h6.1c2.49,0,4.34.34,5.56,1.03s2.31,1.78,3.28,3.27,1.45,3.37,1.45,5.65c0,2.86-.84,5.25-2.53,7.17-1.69,1.92-4.01,2.88-6.98,2.88h-6.88v-20ZM103.99,59.09v12.55h1.93c1.71,0,2.97-.64,3.8-1.91.83-1.27,1.24-2.77,1.24-4.49,0-1.21-.24-2.33-.71-3.36s-1.06-1.75-1.76-2.17c-.7-.42-1.54-.62-2.53-.62h-1.97Z"/>
      <path class="cls-5" d="M123.56,67.49v7.92h-4.72v-20h8.79c1.62,0,2.92.19,3.9.56.98.38,1.79,1.07,2.44,2.07.64,1,.97,2.12.97,3.35,0,2.4-1.16,4.12-3.47,5.17l3.69,8.84h-5.18l-3.07-7.92h-3.36ZM123.56,58.98v5.1h2.87c.94,0,1.62-.07,2.04-.2.42-.13.8-.42,1.13-.88s.5-.97.5-1.56-.17-1.05-.5-1.49-.69-.71-1.08-.81-1.12-.15-2.2-.15h-2.77Z"/>
      <path class="cls-5" d="M148.39,55.42l6.26,20h-5.03l-1.23-4.12h-6.46l-1.25,4.12h-4.11l6.41-20h5.42ZM143.04,67.6h4.24l-2.1-7.02-2.14,7.02Z"/>
      <path class="cls-5" d="M161.47,55.42v20h-4.67v-20h4.67Z"/>
      <path class="cls-5" d="M179.3,59.81l-3.98,1.33c-.54-1.58-1.67-2.37-3.41-2.37-1.85,0-2.78.6-2.78,1.8,0,.48.17.88.52,1.22.35.33,1.13.62,2.35.87,2.04.41,3.53.83,4.48,1.25.95.42,1.74,1.1,2.39,2.03.65.93.97,1.97.97,3.13,0,1.81-.7,3.37-2.09,4.69-1.39,1.32-3.45,1.98-6.18,1.98-2.05,0-3.79-.47-5.23-1.4-1.44-.93-2.39-2.32-2.85-4.15l4.34-.98c.49,1.87,1.84,2.8,4.06,2.8,1.07,0,1.87-.21,2.4-.62.53-.42.79-.91.79-1.49s-.24-1.04-.72-1.36-1.4-.62-2.76-.91c-2.54-.53-4.36-1.25-5.44-2.16-1.08-.91-1.62-2.25-1.62-4.01s.65-3.28,1.94-4.5c1.29-1.22,3.05-1.83,5.26-1.83,3.92,0,6.44,1.57,7.57,4.7Z"/>
      <path class="cls-5" d="M187.58,55.42v20h-4.67v-20h4.67Z"/>
      <path class="cls-5" d="M206.97,55.42v20h-4l-7.83-13.51c0,.34.02.57.03.67.04.34.06.63.06.86v11.97h-3.65v-20h5.05l6.8,11.79c-.06-.59-.09-1.03-.09-1.33v-10.46h3.62Z"/>
      <path class="cls-5" d="M226.56,64.72v10.69h-2.14c-.15-.75-.38-1.52-.67-2.3-1.43,1.74-3.24,2.61-5.45,2.61-2.61,0-4.64-.93-6.09-2.8-1.45-1.87-2.18-4.28-2.18-7.24,0-3.18.77-5.74,2.32-7.68,1.55-1.93,3.65-2.9,6.31-2.9,2.23,0,4.02.62,5.39,1.88s2.2,2.92,2.5,5l-4.45.59c-.36-2.42-1.51-3.63-3.44-3.63-1.27,0-2.23.57-2.88,1.72-.65,1.15-.97,2.79-.97,4.91s.35,3.62,1.05,4.7,1.7,1.63,3,1.63c.84,0,1.59-.27,2.25-.82.66-.55.99-1.42.99-2.62h-3.76v-3.74h8.22Z"/>
    </g>
  </g>
</svg>