<?xml version="1.0" encoding="UTF-8"?>
<svg id="Layer_2" data-name="Layer 2" xmlns="http://www.w3.org/2000/svg" xmlns:xlink="http://www.w3.org/1999/xlink" viewBox="0 0 261.68 363.24">
  <defs>
    <style>
      .cls-1 {
        stroke-width: 8px;
      }

      .cls-1, .cls-2, .cls-3, .cls-4 {
        stroke-miterlimit: 10;
      }

      .cls-1, .cls-2, .cls-4 {
        fill: none;
      }

      .cls-1, .cls-3, .cls-4 {
        stroke: #e6e7e8;
      }

      .cls-2 {
        stroke: #231f20;
        stroke-width: 4px;
      }

      .cls-3 {
        fill: url(#radial-gradient);
      }

      .cls-5 {
        fill: #edf7f6;
      }

      .cls-6 {
        fill: #1c75bc;
      }

      .cls-7 {
        fill: #e6e7e8;
      }

      .cls-4 {
        stroke-width: 9px;
      }
    </style>
    <radialGradient id="radial-gradient" cx="130.39" cy="182.45" fx="130.39" fy="182.45" r="246.77" gradientUnits="userSpaceOnUse">
      <stop offset="0" stop-color="#3e86c6"/>
      <stop offset=".82" stop-color="#114c9c"/>
    </radialGradient>
  </defs>
  <g id="Layer_2-2" data-name="Layer 2">
    <rect class="cls-5" x="3.75" y="4.12" width="253.29" height="355" rx="15" ry="15"/>
    <rect class="cls-3" x="7.76" y="9.75" width="245.27" height="345.39" rx="15" ry="15"/>
    <path class="cls-6" d="M61.51,82.88c-11.56,5.96-16.55,17.82-18.19,21.73-3.07,7.31-1.15,7.65-3.54,37.89-.69,8.74-1.47,16.6,0,27.28.97,7.07,2.48,12.12,6.06,16.67,1.05,1.34,3.99,5,9.09,7.58,6.88,3.47,10.07,1.11,12.63,4.04,2.47,2.83.69,6.38-.51,19.2-.82,8.87-1.3,14.43.51,15.16,3.52,1.42,11.47-17.18,18.19-15.66,2.57.58,2.72,3.6,8.08,11.12,0,0,3.74,5.24,8.08,9.6,12.84,12.89,45.95-5.35,62.64,8.15,4.3,3.48,4.5,3.55,16.18,14.59,5.96,5.63,8.63,7.36,10.11,6.57,3.7-1.97-5.27-16.97,1.01-24.76,4.29-5.32,10.95-1.39,18.69-7.58,5.45-4.35,7.22-10.34,9.09-16.67,1.06-3.57,4.34-15.22,0-28.29-2.55-7.69-6.89-13.34-10.61-18.19-5.06-6.59-6.22-6.07-8.08-9.6-4.36-8.23.17-14.43,1.52-28.8.82-8.71,2.19-23.38-6.06-35.37-5.96-8.66-14.4-12.21-16.67-13.14-10.14-4.11-17.41-1.76-30.82-.51-12.26,1.15-26.19.09-54.06-2.02-20.32-1.54-25.61-2.98-33.35,1.01Z"/>
    <path class="cls-1" d="M168.97,199.36h-62.49l-38.4,35.09.19-35.56c-3.21,0-.79,0-3.72-.85-13.73-4-23.76-16.67-23.76-31.69v-49.98c0-18.23,14.77-33,33-33h95.18c18.23,0,33,14.77,33,33v49.98c0,18.23-14.77,33-33,33Z"/>
    <circle class="cls-7" cx="82.86" cy="144.64" r="12.25"/>
    <circle class="cls-7" cx="123.78" cy="144.64" r="12.25"/>
    <circle class="cls-7" cx="163.7" cy="144.64" r="12.25"/>
    <path class="cls-4" d="M88.7,215.61s4.14,25.92,25.36,26.43,47.48.96,47.48.96l30.83,30.36v-31.33s27.79-4.04,27.79-21.73v-27.28s.51-19.71-18.19-21.73"/>
  </g>
  <g id="Layer_8" data-name="Layer 8">
    <rect class="cls-2" x="2" y="2" width="257.68" height="359.24" rx="14.99" ry="14.99"/>
  </g>
</svg>