<?xml version="1.0" encoding="UTF-8"?>
<svg id="Layer_2" data-name="Layer 2" xmlns="http://www.w3.org/2000/svg" xmlns:xlink="http://www.w3.org/1999/xlink" viewBox="0 0 261.68 364.24">
  <defs>
    <style>
      .cls-1 {
        stroke-width: 8px;
      }

      .cls-1, .cls-2, .cls-3, .cls-4 {
        stroke-miterlimit: 10;
      }

      .cls-1, .cls-2, .cls-4 {
        fill: none;
      }

      .cls-1, .cls-3, .cls-4 {
        stroke: #e6e7e8;
      }

      .cls-2 {
        stroke: #231f20;
        stroke-width: 4px;
      }

      .cls-5 {
        fill: #f1f2f2;
      }

      .cls-3 {
        fill: url(#radial-gradient);
      }

      .cls-6 {
        fill: #edf7f6;
      }

      .cls-7 {
        fill: #1c75bc;
      }

      .cls-8 {
        fill: #e6e7e8;
      }

      .cls-4 {
        stroke-width: 9px;
      }
    </style>
    <radialGradient id="radial-gradient" cx="130.84" cy="181.87" fx="130.84" fy="181.87" r="246.77" gradientUnits="userSpaceOnUse">
      <stop offset="0" stop-color="#3e86c6"/>
      <stop offset=".82" stop-color="#114c9c"/>
    </radialGradient>
  </defs>
  <g id="Layer_2-2" data-name="Layer 2">
    <rect class="cls-6" x="4.2" y="3.54" width="253.29" height="355" rx="15" ry="15"/>
    <rect class="cls-3" x="8.21" y="9.17" width="245.27" height="345.39" rx="15" ry="15"/>
    <path class="cls-7" d="M61.96,103.01c-11.56,5.96-16.55,17.82-18.19,21.73-3.07,7.31-1.15,7.65-3.54,37.89-.69,8.74-1.47,16.6,0,27.28.97,7.07,2.48,12.12,6.06,16.67,1.05,1.34,3.99,5,9.09,7.58,6.88,3.47,10.07,1.11,12.63,4.04,2.47,2.83.69,6.38-.51,19.2-.82,8.87-1.3,14.43.51,15.16,3.52,1.42,11.47-17.18,18.19-15.66,2.57.58,2.72,3.6,8.08,11.12,0,0,3.74,5.24,8.08,9.6,12.84,12.89,45.95-5.35,62.64,8.15,4.3,3.48,4.5,3.55,16.18,14.59,5.96,5.63,8.63,7.36,10.11,6.57,3.7-1.97-5.27-16.97,1.01-24.76,4.29-5.32,10.95-1.39,18.69-7.58,5.45-4.35,7.22-10.34,9.09-16.67,1.06-3.57,4.34-15.22,0-28.29-2.55-7.69-6.89-13.34-10.61-18.19-5.06-6.59-6.22-6.07-8.08-9.6-4.36-8.23.17-14.43,1.52-28.8.82-8.71,2.19-23.38-6.06-35.37-5.96-8.66-14.4-12.21-16.67-13.14-10.14-4.11-17.41-1.76-30.82-.51-12.26,1.15-26.19.09-54.06-2.02-20.32-1.54-25.61-2.98-33.35,1.01Z"/>
    <path class="cls-1" d="M169.42,219.49h-62.49l-38.4,35.09.19-35.56c-3.21,0-.79,0-3.72-.85-13.73-4-23.76-16.67-23.76-31.69v-49.98c0-18.23,14.77-33,33-33h95.18c18.23,0,33,14.77,33,33v49.98c0,18.23-14.77,33-33,33Z"/>
    <circle class="cls-8" cx="83.3" cy="164.78" r="12.25"/>
    <circle class="cls-8" cx="124.23" cy="164.78" r="12.25"/>
    <circle class="cls-8" cx="164.15" cy="164.78" r="12.25"/>
    <path class="cls-4" d="M89.15,235.74s4.14,25.92,25.36,26.43,47.48.96,47.48.96l30.83,30.36v-31.33s27.79-4.04,27.79-21.73v-27.28s.51-19.71-18.19-21.73"/>
  </g>
  <g id="Layer_8" data-name="Layer 8">
    <g>
      <path class="cls-5" d="M66.46,75.41l-4.93-16.3v16.3h-3.93v-20h7.29l3.51,11.97,3.69-11.97h7.32v20h-4.72v-16.3l-5.03,16.3h-3.21Z"/>
      <path class="cls-5" d="M93.22,55.42l6.26,20h-5.03l-1.23-4.12h-6.46l-1.25,4.12h-4.11l6.41-20h5.42ZM87.87,67.6h4.24l-2.1-7.02-2.14,7.02Z"/>
      <path class="cls-5" d="M106.35,67.49v7.92h-4.72v-20h8.79c1.62,0,2.92.19,3.9.56.98.38,1.79,1.07,2.44,2.07.64,1,.97,2.12.97,3.35,0,2.4-1.16,4.12-3.47,5.17l3.69,8.84h-5.18l-3.07-7.92h-3.36ZM106.35,58.98v5.1h2.87c.94,0,1.62-.07,2.04-.2.42-.13.8-.42,1.13-.88s.5-.97.5-1.56-.17-1.05-.5-1.49-.69-.71-1.08-.81-1.12-.15-2.2-.15h-2.77Z"/>
      <path class="cls-5" d="M125.95,55.42v9.39l6.27-9.39h4.48l-4.8,7.14,6,12.86h-5.16l-3.99-8.68-2.81,4.1v4.58h-4.6v-20h4.6Z"/>
      <path class="cls-5" d="M154.55,59.22h-9.52v4.1h7.49v3.76h-7.49v4.37h9.52v3.96h-14.28v-20h14.28v3.81Z"/>
      <path class="cls-5" d="M170.03,55.42v3.96h-4.95v16.04h-4.75v-16.04h-4.98v-3.96h14.68Z"/>
      <path class="cls-5" d="M176.71,55.42v20h-4.67v-20h4.67Z"/>
      <path class="cls-5" d="M196.1,55.42v20h-4l-7.83-13.51c0,.34.02.57.03.67.04.34.06.63.06.86v11.97h-3.65v-20h5.05l6.8,11.79c-.06-.59-.09-1.03-.09-1.33v-10.46h3.62Z"/>
      <path class="cls-5" d="M215.69,64.72v10.69h-2.14c-.15-.75-.38-1.52-.67-2.3-1.43,1.74-3.24,2.61-5.45,2.61-2.61,0-4.64-.93-6.09-2.8-1.45-1.87-2.18-4.28-2.18-7.24,0-3.18.77-5.74,2.32-7.68,1.55-1.93,3.65-2.9,6.31-2.9,2.23,0,4.02.62,5.39,1.88s2.2,2.92,2.5,5l-4.45.59c-.36-2.42-1.51-3.63-3.44-3.63-1.27,0-2.23.57-2.88,1.72-.65,1.15-.97,2.79-.97,4.91s.35,3.62,1.05,4.7,1.7,1.63,3,1.63c.84,0,1.59-.27,2.25-.82.66-.55.99-1.42.99-2.62h-3.76v-3.74h8.22Z"/>
    </g>
    <path class="cls-2" d="M244.7,362.24H16.99c-8.28,0-14.99-6.71-14.99-14.99V16.99c0-8.28,6.71-14.99,14.99-14.99l227.71,1c8.28,0,14.99,6.71,14.99,14.99v329.27c0,8.28-6.71,14.99-14.99,14.99Z"/>
  </g>
</svg>