<?xml version="1.0" encoding="UTF-8"?>
<svg id="Layer_2" data-name="Layer 2" xmlns="http://www.w3.org/2000/svg" xmlns:xlink="http://www.w3.org/1999/xlink" viewBox="0 0 261.68 363.24">
  <defs>
    <style>
      .cls-1 {
        stroke: #231f20;
        stroke-width: 4px;
      }

      .cls-1, .cls-2 {
        fill: none;
      }

      .cls-1, .cls-2, .cls-3 {
        stroke-miterlimit: 10;
      }

      .cls-4 {
        fill: #f1f2f2;
      }

      .cls-5 {
        fill: #a16bad;
      }

      .cls-6 {
        fill: url(#radial-gradient);
      }

      .cls-7 {
        fill: #edf7f6;
      }

      .cls-2, .cls-3 {
        stroke: #e6e7e8;
        stroke-width: 10px;
      }

      .cls-3 {
        fill: #92278f;
      }
    </style>
    <radialGradient id="radial-gradient" cx="130.84" cy="182.45" fx="130.84" fy="182.45" r="246.77" gradientUnits="userSpaceOnUse">
      <stop offset="0" stop-color="#9c499c"/>
      <stop offset=".82" stop-color="#71297d"/>
    </radialGradient>
  </defs>
  <g id="Layer_1-2" data-name="Layer 1">
    <rect class="cls-7" x="4.2" y="4.12" width="253.29" height="355" rx="15" ry="15"/>
    <rect class="cls-6" x="8.21" y="9.75" width="245.27" height="345.39" rx="15" ry="15"/>
    <polygon class="cls-5" points="100.57 149.47 122.95 125.22 148.97 131.28 161.2 163.11 143.31 200.64 182.55 202.73 198.79 244.72 61.27 244.72 81.87 198.73 115.22 201.01 108.65 188 100.57 167.66 100.57 149.47"/>
    <path class="cls-2" d="M130.37,227.78l-29.8-64.42v-6.57s1.25-31.58,29.8-31.58,30.83,30.57,30.83,30.57v7.33l-30.83,64.67Z"/>
    <circle class="cls-3" cx="130.88" cy="156.79" r="4.17"/>
    <path class="cls-2" d="M146.55,198.73h34.11s17.68,37.14,19.45,41.94-4.55,4.8-4.55,4.8H65.96c-7.07,0-4.04-5.81-4.04-5.81l19.96-40.93h33.35"/>
  </g>
  <g id="Layer_5" data-name="Layer 5">
    <path class="cls-1" d="M244.68,361.24H17c-8.28,0-15-6.72-15-12V20C2,8.72,8.72,2,17,2h227.68c8.28,0,15,6.72,15,15v329.24c0,8.28-6.72,15-15,15Z"/>
  </g>
  <g id="Layer_8" data-name="Layer 8">
    <g>
      <path class="cls-4" d="M93.33,56l-6.04,20h-5.03l-6.01-20h4.99l4,14.3,4.17-14.3h3.93Z"/>
      <path class="cls-4" d="M109.41,59.81h-9.52v4.1h7.49v3.76h-7.49v4.37h9.52v3.96h-14.28v-20h14.28v3.81Z"/>
      <path class="cls-4" d="M127.6,56v20h-4l-7.83-13.51c0,.34.02.57.03.67.04.34.06.63.06.86v11.97h-3.65v-20h5.05l6.8,11.79c-.06-.59-.09-1.03-.09-1.33v-10.46h3.62Z"/>
      <path class="cls-4" d="M147.38,56v12.45c0,2.01-.23,3.51-.69,4.49s-1.31,1.79-2.54,2.42c-1.24.63-2.82.94-4.74.94s-3.46-.28-4.59-.85-1.99-1.37-2.56-2.42-.85-2.57-.85-4.58v-12.45h5.08v12.45c0,1.07.09,1.87.27,2.37.18.51.54.91,1.08,1.21.54.3,1.21.45,2,.45.88,0,1.59-.15,2.15-.44s.92-.68,1.1-1.16c.18-.48.27-1.29.27-2.42v-12.45h4.01Z"/>
      <path class="cls-4" d="M165.38,59.81h-9.52v4.1h7.49v3.76h-7.49v4.37h9.52v3.96h-14.28v-20h14.28v3.81Z"/>
      <path class="cls-4" d="M182.01,60.39l-3.98,1.33c-.54-1.58-1.67-2.37-3.41-2.37-1.85,0-2.78.6-2.78,1.8,0,.48.17.88.52,1.22.35.33,1.13.62,2.35.87,2.04.41,3.53.83,4.48,1.25.95.42,1.74,1.1,2.39,2.03.65.93.97,1.97.97,3.13,0,1.81-.7,3.37-2.09,4.69-1.39,1.32-3.45,1.98-6.18,1.98-2.05,0-3.79-.47-5.23-1.4-1.44-.93-2.39-2.32-2.85-4.15l4.34-.98c.49,1.87,1.84,2.8,4.06,2.8,1.07,0,1.87-.21,2.4-.62.53-.42.79-.91.79-1.49s-.24-1.04-.72-1.36-1.4-.62-2.76-.91c-2.54-.53-4.36-1.25-5.44-2.16-1.08-.91-1.62-2.25-1.62-4.01s.65-3.28,1.94-4.5c1.29-1.22,3.05-1.83,5.26-1.83,3.92,0,6.44,1.57,7.57,4.7Z"/>
    </g>
  </g>
</svg>